<svg width="48" height="48" viewBox="0 0 48 48" fill="none" xmlns="http://www.w3.org/2000/svg" xmlns:xlink="http://www.w3.org/1999/xlink">
<path d="M28.7,4L19.3,4C17.22,4 15.52,5.68 15.52,7.76L15.52,9.64C15.52,11.72 17.2,13.4 19.28,13.4L28.7,13.4C30.78,13.4 32.46,11.72 32.46,9.64L32.46,7.76C32.48,5.68 30.78,4 28.7,4Z" stroke="#1400FF" stroke-width="1" stroke-miterlimit="3.999327"/>
<path d="M34.48,9.64C34.48,12.82 31.88,15.42 28.7,15.42L19.3,15.42C16.12,15.42 13.52,12.82 13.52,9.64C13.52,8.52 12.32,7.82 11.32,8.34C8.5,9.84 6.58,12.82 6.58,16.24L6.58,35.06C6.58,39.98 10.6,44 15.52,44L32.48,44C37.4,44 41.42,39.98 41.42,35.06L41.42,16.24C41.42,12.82 39.5,9.84 36.68,8.34C35.68,7.82 34.48,8.52 34.48,9.64ZM30.68,25.46L22.68,33.46C22.38,33.76 22,33.9 21.62,33.9C21.24,33.9 20.86,33.76 20.56,33.46L17.56,30.46C16.98,29.88 16.98,28.92 17.56,28.34C18.14,27.76 19.1,27.76 19.68,28.34L21.62,30.28L28.56,23.34C29.14,22.76 30.1,22.76 30.68,23.34C31.26,23.92 31.26,24.88 30.68,25.46Z" stroke="#1400FF" stroke-width="1" stroke-miterlimit="3.999327"/>
</svg>
