<svg width="352" height="590" viewBox="0 0 352 590" fill="none" xmlns="http://www.w3.org/2000/svg" xmlns:xlink="http://www.w3.org/1999/xlink">
<path d="M54.066,0.888L53.094,0.888L50.283,1.095C48.762,1.187 47.249,1.387 45.756,1.695C44.789,1.83 43.83,2.017 42.883,2.253L39.679,3.142C34.226,4.815 29.081,7.363 24.445,10.686C18.32,15.132 13.205,20.824 9.438,27.388C7.224,31.172 5.461,35.203 4.188,39.398C2.849,43.957 2.078,48.664 1.893,53.412C1.77,55.907 1.811,58.406 2.017,60.895C2.017,62.156 2.369,63.417 2.534,64.698C2.673,65.99 2.915,67.269 3.257,68.523C5.116,76.817 8.888,84.563 14.271,91.141C19.654,97.719 26.5,102.949 34.263,106.412C39.882,108.836 45.904,110.189 52.019,110.401C58.336,110.748 64.658,109.842 70.623,107.735L72.442,107.052L72.69,107.052L72.896,107.176L98.962,120.406L98.197,121.067C95.407,112.427 92.719,104.055 90.115,96.014L90.115,95.704L90.342,95.477C96.665,89.108 101.359,81.308 104.026,72.739C106.442,64.905 107.147,56.644 106.093,48.513C105.156,41.288 102.833,34.312 99.251,27.967C96.164,22.517 92.181,17.625 87.469,13.497C83.582,10.23 79.28,7.492 74.674,5.353C71.189,3.85 67.56,2.707 63.843,1.943L59.709,1.261L56.711,1.033L54.892,0.909L54.272,0.909C54.478,0.886 54.686,0.886 54.892,0.909L56.732,0.909L59.729,1.033L63.863,1.633C67.627,2.341 71.306,3.443 74.839,4.919C79.524,7.032 83.904,9.765 87.862,13.043C92.66,17.152 96.728,22.045 99.892,27.512C103.576,33.925 105.97,40.996 106.941,48.327C108.081,56.583 107.426,64.988 105.018,72.967C102.334,81.714 97.568,89.68 91.128,96.18L91.252,95.642C93.856,103.683 96.564,112.055 99.375,120.674L99.768,121.935L98.59,121.336L72.524,108.127L72.979,108.127L71.119,108.809C65.039,110.949 58.6,111.876 52.164,111.538C45.917,111.3 39.769,109.898 34.036,107.404C23.101,102.721 14.002,94.581 8.136,84.232C5.436,79.453 3.464,74.297 2.286,68.936C1.963,67.65 1.722,66.345 1.562,65.029C1.397,63.727 1.128,62.445 1.066,61.164C0.507,53.809 1.284,46.414 3.361,39.336C4.666,35.083 6.478,31.002 8.756,27.181C12.613,20.558 17.834,14.83 24.073,10.376C28.785,7.044 34.016,4.516 39.555,2.893L42.8,2.067C43.755,1.845 44.721,1.673 45.694,1.55C47.202,1.271 48.729,1.105 50.262,1.054L53.094,0.95C53.416,0.907 53.741,0.886 54.066,0.888Z" fill="#007AFF"/>
<path d="M65.848,49.092L62.024,49.092L53.755,37.475L53.755,29.848C53.755,29.848 47.844,29.476 48.546,39.46C49.249,49.444 48.546,46.901 48.546,46.901C48.546,46.901 35.999,46.901 34.966,48.038C33.932,49.175 33.87,61.288 33.726,68.047C33.646,69.676 34.114,71.285 35.054,72.619C35.994,73.952 37.353,74.933 38.914,75.406C39.352,75.527 39.803,75.589 40.258,75.592C43.4,75.592 59.378,73.049 59.378,73.049L65.972,73.049L65.848,49.092Z" fill="#007AFF"/>
<path d="M76.782,47.046L74.426,73.173L67.894,73.173L67.894,47.583L76.782,47.046Z" fill="#007AFF"/>
<path d="M154.69,578.96L154.69,561.287L123.002,561.06L122.733,587.787L124.697,587.931C133.44,588.49 169.18,589.316 175.05,587.497C181.582,585.472 154.69,578.96 154.69,578.96Z" fill="#007AFF"/>
<path d="M175.794,585.844C175.794,586.133 163.929,586.381 149.315,586.381C134.701,586.381 122.836,586.133 122.836,585.844C122.836,585.554 134.701,585.306 149.315,585.306C163.929,585.306 175.794,585.554 175.794,585.844Z" fill="#263238"/>
<path d="M155.248,582.578C154.979,582.433 155.248,581.503 155.889,580.511C156.529,579.519 157.398,579.105 157.604,579.312C157.811,579.519 157.377,580.304 156.757,581.152C156.137,581.999 155.517,582.722 155.248,582.578Z" fill="#263238"/>
<path d="M157.274,583.735C156.984,583.735 157.129,582.578 157.749,581.482C158.369,580.387 159.196,579.725 159.423,579.891C159.651,580.056 159.279,580.986 158.7,581.958C158.121,582.929 157.542,583.839 157.274,583.735Z" fill="#263238"/>
<path d="M132.386,585.761C132.262,585.761 131.787,585.389 131.105,584.603C130.272,583.594 129.344,582.666 128.335,581.834C127.342,581.04 126.159,580.52 124.903,580.325C123.932,580.201 123.312,580.325 123.25,580.201C123.188,580.077 123.787,579.642 124.924,579.56C126.424,579.528 127.888,580.026 129.058,580.965C130.154,581.859 131.079,582.945 131.787,584.169C132.262,585.079 132.51,585.678 132.386,585.761Z" fill="#263238"/>
<path d="M155.351,579.25C155.496,579.498 154.958,580.118 154.049,580.449C153.139,580.779 152.333,580.655 152.292,580.449C152.251,580.242 152.891,579.808 153.677,579.519C154.462,579.229 155.186,579.002 155.351,579.25Z" fill="#263238"/>
<path d="M154.855,577.534C154.855,577.844 154.028,578.092 152.953,578.113C151.878,578.134 151.031,577.886 151.052,577.596C151.072,577.307 151.92,577.038 152.953,577.017C153.987,576.997 154.814,577.245 154.855,577.534Z" fill="#263238"/>
<path d="M232.721,578.96L232.721,561.287L201.033,561.06L200.764,587.518L202.728,587.663C211.472,588.221 247.232,589.316 253.082,587.497C259.613,585.472 232.721,578.96 232.721,578.96Z" fill="#007AFF"/>
<path d="M253.826,585.885C253.826,586.174 241.981,586.423 227.347,586.423C212.712,586.423 200.888,586.174 200.888,585.885C200.888,585.596 212.733,585.348 227.347,585.348C241.961,585.348 253.826,585.596 253.826,585.885Z" fill="#263238"/>
<path d="M233.279,582.578C233.031,582.433 233.279,581.503 233.92,580.511C234.561,579.519 235.429,579.105 235.635,579.312C235.842,579.519 235.408,580.304 234.788,581.152C234.168,581.999 233.548,582.722 233.279,582.578Z" fill="#263238"/>
<path d="M235.305,583.735C235.036,583.735 235.16,582.578 235.801,581.482C236.442,580.387 237.248,579.725 237.475,579.891C237.702,580.056 237.31,580.986 236.731,581.958C236.152,582.929 235.594,583.839 235.305,583.735Z" fill="#263238"/>
<path d="M210.417,585.761C210.293,585.761 209.839,585.389 209.136,584.603C208.303,583.594 207.376,582.666 206.366,581.834C205.373,581.04 204.19,580.52 202.935,580.325C201.984,580.201 201.343,580.325 201.281,580.201C201.219,580.077 201.818,579.642 202.955,579.56C204.456,579.528 205.919,580.026 207.089,580.965C208.191,581.853 209.117,582.94 209.818,584.169C210.293,585.079 210.541,585.678 210.417,585.761Z" fill="#263238"/>
<path d="M233.382,579.25C233.527,579.498 232.99,580.118 232.08,580.449C231.171,580.779 230.365,580.655 230.323,580.449C230.282,580.242 230.923,579.808 231.708,579.519C232.494,579.229 233.217,579.002 233.382,579.25Z" fill="#263238"/>
<path d="M232.928,577.534C232.928,577.844 232.101,578.092 231.026,578.113C229.951,578.134 229.124,577.886 229.145,577.596C229.166,577.307 229.992,577.038 231.026,577.017C232.059,576.997 232.928,577.245 232.928,577.534Z" fill="#263238"/>
<path d="M349.469,54.136C348.641,53.288 346.595,53.702 346.595,53.702C346.801,52.511 346.801,51.295 346.595,50.105C346.223,48.947 343.619,49.175 343.619,49.175C343.499,48.2 343.499,47.214 343.619,46.24C343.639,46.024 343.593,45.806 343.485,45.618C343.379,45.429 343.215,45.278 343.019,45.185C341.787,44.683 340.463,44.444 339.133,44.483C337.541,43.346 343.991,34.313 346.389,31.419C348.787,28.525 348.351,26.272 346.223,26.272C344.755,26.272 337.231,34.953 334.917,37.868C332.601,40.783 326.461,48.885 326.255,42.416C326.049,35.946 323.443,31.067 321.811,30.241C320.179,29.414 318.441,31.357 319.331,33.155C320.111,35.198 320.599,37.342 320.777,39.522C321.003,41.258 320.925,43.02 320.551,44.731C319.865,47.913 318.931,51.037 317.759,54.074L317.595,54.074C317.595,54.074 272.491,97.337 269.225,100.417C266.311,103.187 207.689,97.13 195.928,95.89C191.931,95.305 187.895,95.029 183.856,95.063C178.75,95.291 177.841,96.014 172.756,96.076C159.914,96.219 147.102,97.345 134.433,99.445C128.696,100.421 123.337,102.953 118.941,106.766C114.545,110.579 111.281,115.526 109.504,121.067C97.66,158.067 70.829,245.648 66.096,294.844C62.519,301.33 59.29,308.002 56.422,314.832C53.094,323.886 53.9,324.196 55.016,324.404C58.034,324.962 61.466,308.714 62.747,312.642C64.029,316.568 56.236,332.01 59.399,332.464C63.533,333.044 66.819,315.928 67.212,314.564C67.605,313.2 69.651,313.634 69.279,314.916C68.68,316.734 62.871,336.02 66.923,336.64C69.155,336.97 69.403,332.898 69.403,332.898C69.403,332.898 73.537,314.44 75.418,314.812C77.299,315.184 75.294,326.078 74.343,329.716C73.393,333.354 74.715,335.194 76.659,334.304C77.981,333.684 81.144,322.626 82.012,319.028C82.88,315.432 85.051,305.468 87.965,311.236C90.88,317.002 95.303,320.352 97.122,320.434C97.532,320.386 97.919,320.218 98.232,319.95C98.545,319.68 98.77,319.324 98.879,318.926C98.988,318.528 98.976,318.108 98.843,317.716C98.71,317.326 98.464,316.984 98.135,316.734C96.571,315.206 95.228,313.468 94.146,311.566C93.182,310.086 92.482,308.45 92.079,306.73C91.246,303.3 90.761,299.796 90.632,296.27L90.301,294.204C94.931,271.28 108.264,203.997 127.508,161.023L135.404,177.27L138.835,189.3L117.793,241.246L207.544,240.068L194.15,188.515L210.418,134.771C228.008,135.164 273.173,135.826 280.697,132.415C290.165,128.281 339.133,66.435 339.133,66.435C342.325,63.954 345.381,61.305 348.289,58.497C348.289,58.497 351.267,55.996 349.469,54.136Z" fill="#FFBE9D"/>
<path d="M113.845,202.86C116.449,193.972 129.823,150.026 129.823,150.026C129.823,150.026 136.396,185.848 134.66,190.168C133.063,193.867 131.176,197.433 129.017,200.834C113.845,223.923 115.829,235.478 115.829,235.478L207.503,232.688C207.71,219.872 200.124,190.065 198.553,185.311C196.982,180.557 202.211,164.992 202.211,164.992C202.211,164.992 212.547,154.47 212.174,149.055C211.978,144.19 211.377,139.35 210.376,134.585L266.187,136.652L264.43,98.825L184.269,90.805C181.479,98.681 156.24,94.815 156.24,94.815C128.996,95.725 127.301,100.727 115.974,109.533C104.646,118.338 85.898,193.91 85.898,193.91L113.845,202.86Z" fill="#007AFF"/>
<path d="M168.043,193.91C166.454,194.194 164.836,194.277 163.227,194.158C160.229,194.158 156.116,193.951 151.589,193.496C147.062,193.042 142.97,192.401 140.055,191.822C138.448,191.615 136.872,191.213 135.363,190.623C136.979,190.624 138.591,190.776 140.179,191.078C143.114,191.45 147.186,191.967 151.692,192.422C156.199,192.876 160.291,193.186 163.247,193.393C164.859,193.414 166.464,193.587 168.043,193.91Z" fill="#263238"/>
<path d="M174.327,186.117C172.738,186.896 171.057,187.472 169.325,187.833C161.078,190 152.569,191.008 144.044,190.83C142.28,190.887 140.516,190.721 138.794,190.334C140.535,190.114 142.29,190.024 144.044,190.065C147.29,189.962 151.755,189.734 156.674,189.156C161.594,188.577 165.976,187.75 169.077,187.089C170.799,186.629 172.554,186.304 174.327,186.117Z" fill="#263238"/>
<path d="M205.167,151.349C205.125,152.925 204.91,154.492 204.526,156.021C203.989,158.894 203.162,162.821 202.108,167.121C201.054,171.42 200.041,175.389 199.131,178.076C198.766,179.614 198.225,181.105 197.519,182.52C197.634,180.949 197.925,179.396 198.387,177.89C199.173,174.666 200.062,170.945 201.054,166.873C202.046,162.801 202.997,159.08 203.782,155.855C204.062,154.303 204.527,152.791 205.167,151.349Z" fill="#263238"/>
<path d="M114.816,197.589C110.034,196.851 105.315,195.752 100.698,194.303C95.981,193.2 91.352,191.749 86.849,189.962C91.629,190.712 96.347,191.811 100.967,193.248C105.685,194.347 110.315,195.798 114.816,197.589Z" fill="#263238"/>
<path d="M211.368,134.131C210.589,134.265 209.792,134.265 209.012,134.131C206.853,133.909 204.733,133.402 202.707,132.622C199.326,131.351 196.248,129.387 193.67,126.856C191.093,124.325 189.074,121.283 187.742,117.925C186.27,114.231 185.641,110.255 185.902,106.287C185.994,103.015 186.973,99.829 188.734,97.068C189.973,95.209 191.823,93.842 193.964,93.203C194.536,93.045 195.127,92.969 195.721,92.976C196.134,92.976 196.341,92.976 196.341,92.976C196.341,92.976 195.473,92.976 194.088,93.534C192.124,94.259 190.458,95.62 189.354,97.399C186.543,101.823 185.758,109.905 188.755,117.45C190.15,121.007 192.334,124.201 195.142,126.793C197.443,128.913 200.093,130.619 202.976,131.836C205.681,132.905 208.496,133.675 211.368,134.131Z" fill="#263238"/>
<path d="M259.551,135.908C259.034,129.57 258.868,123.207 259.055,116.85C258.893,110.498 259.086,104.143 259.634,97.813C260.151,104.144 260.317,110.5 260.13,116.85C260.304,123.209 260.111,129.572 259.551,135.908Z" fill="#263238"/>
<path d="M183.732,93.12C183.959,88.511 184.435,83.302 184.435,83.302C184.435,83.302 195.845,82.041 196.527,70.259C197.209,58.477 196.527,31.295 196.527,31.295L175.856,20.712L152.912,38.757L156.447,97.668L177.489,99.012C179.098,99.056 180.658,98.461 181.829,97.357C182.999,96.252 183.683,94.729 183.732,93.12Z" fill="#FFBE9D"/>
<path d="M185.778,60.936C185.778,60.936 185.778,61.164 185.592,61.432C185.438,61.627 185.239,61.782 185.013,61.883C184.786,61.984 184.538,62.028 184.29,62.011C182.967,62.011 181.685,60.482 181.231,58.704C181.015,57.842 181.015,56.94 181.231,56.079C181.273,55.703 181.409,55.343 181.625,55.033C181.842,54.722 182.133,54.471 182.471,54.301C182.749,54.186 183.061,54.186 183.339,54.301C183.545,54.403 183.712,54.57 183.815,54.777C183.959,55.128 183.815,55.355 183.815,55.335C183.815,55.314 183.815,55.128 183.608,54.921C183.5,54.773 183.341,54.67 183.162,54.632C182.982,54.594 182.795,54.623 182.636,54.715C182.383,54.868 182.172,55.083 182.024,55.339C181.876,55.596 181.795,55.886 181.789,56.182C181.615,56.951 181.615,57.749 181.789,58.518C182.202,60.13 183.318,61.432 184.311,61.556C184.505,61.583 184.702,61.569 184.891,61.515C185.079,61.462 185.255,61.371 185.406,61.246C185.654,61.081 185.737,60.916 185.778,60.936Z" fill="#EB996E"/>
<path d="M203.617,24.928C202.025,19.513 196.258,16.825 191.008,15.337C183.008,13.063 174.368,12.071 166.555,14.944C158.741,17.818 149.357,22.861 149.357,31.481C144.747,31.109 142.101,35.14 140.282,40.142C139.119,43.189 138.423,46.395 138.215,49.65C137.637,60.936 134.474,76.522 127.157,84.79C123.022,89.4 117.297,92.583 114.94,98.329C112.873,103.311 113.948,109.223 112.026,114.266C110.31,118.711 106.527,121.873 103.757,125.739C100.936,130.124 99.275,135.154 98.931,140.357C98.588,145.56 99.573,150.766 101.794,155.483C104.031,160.08 107.18,164.174 111.05,167.514C114.92,170.855 119.43,173.372 124.304,174.914C133.959,177.851 144.255,177.952 153.966,175.203C161.254,173.461 168.053,170.09 173.851,165.343C179.784,160.498 183.859,153.75 185.385,146.244C186.853,137.81 184.497,129.232 182.74,120.84C177.241,94.319 178.812,92.934 185.758,68.316C185.923,67.882 186.006,67.427 186.13,66.993C186.254,66.559 186.316,66.352 186.398,66.021C186.596,65.048 186.699,64.058 186.708,63.066C185.694,63.443 184.593,63.523 183.535,63.296C182.476,63.069 181.505,62.544 180.735,61.784C179.962,60.973 179.424,59.969 179.177,58.877C178.929,57.785 178.982,56.647 179.329,55.583C179.817,54.419 180.543,53.37 181.462,52.505C182.381,51.64 183.471,50.977 184.662,50.56C186.956,49.609 189.416,49.113 191.669,48.059C196.444,45.785 199.751,41.072 202.005,36.132C203.857,32.708 204.429,28.736 203.617,24.928Z" fill="#263238"/>
<path d="M186.605,61.495C187.042,62.14 187.402,62.833 187.68,63.562C188.3,64.864 189.127,66.703 190.036,68.833L190.202,69.225L189.768,69.225L187.701,69.411C186.274,69.411 185.075,69.68 183.67,69.659C183.547,69.632 183.434,69.574 183.34,69.491C183.246,69.408 183.175,69.302 183.132,69.184C183.071,68.996 183.071,68.793 183.132,68.605C183.18,68.327 183.242,68.051 183.318,67.778L183.69,66.311C183.877,65.332 184.168,64.375 184.559,63.458C184.52,64.456 184.375,65.447 184.125,66.414L183.835,67.882C183.732,68.378 183.546,69.143 183.835,69.081C184.869,69.081 186.336,68.853 187.701,68.771L189.768,68.584L189.499,69.039C188.61,66.972 187.866,65.029 187.432,63.686C187.051,62.999 186.772,62.261 186.605,61.495Z" fill="#007AFF"/>
<path d="M115.829,235.478L207.503,232.688L247.397,388.42L240.059,567.054L191.587,567.054L197.519,392.223L162.069,283.806L167.526,573.98L118.537,574.702L113.39,301.955C113.163,294.369 110.682,277.274 111.612,269.75L115.829,235.478Z" fill="#263238"/>
<path d="M174.265,286.018C172.764,286.112 171.258,286.022 169.779,285.749C167.009,285.418 163.227,284.84 159.072,284.013C154.917,283.186 151.197,282.235 148.509,281.47C147.073,281.155 145.683,280.654 144.375,279.982C144.375,279.672 151.114,281.284 159.382,282.959C167.65,284.633 174.306,285.708 174.265,286.018Z" fill="#455A64"/>
<path d="M239.563,557.256C239.563,557.546 228.587,557.794 215.048,557.794C201.508,557.794 190.512,557.546 190.512,557.256C190.512,556.967 201.488,556.719 215.048,556.719C228.608,556.719 239.563,556.946 239.563,557.256Z" fill="#455A64"/>
<path d="M167.092,566.434C167.092,566.744 156.426,566.972 143.28,566.972C130.133,566.972 119.488,566.744 119.488,566.434C119.488,566.124 130.154,565.897 143.28,565.897C156.405,565.897 167.092,566.145 167.092,566.434Z" fill="#455A64"/>
<path d="M160.767,565.69C160.477,565.69 159.196,502.294 157.894,424.097C156.591,345.9 155.827,282.462 156.095,282.462C156.364,282.462 157.687,345.838 158.968,424.076C160.25,502.314 161.077,565.69 160.767,565.69Z" fill="#455A64"/>
<path d="M233.052,557.256C233.029,556.974 233.029,556.69 233.052,556.408L233.052,553.928C233.052,551.696 233.217,548.492 233.341,544.42C233.631,536.152 234.044,524.142 234.561,509.424C235.677,479.824 237.248,439.02 238.964,393.98C238.964,393.546 238.964,393.132 238.964,392.76L238.964,392.905C228.112,349.497 218.293,310.099 211.162,281.594L202.893,247.881C201.943,243.933 201.219,240.853 200.702,238.703C200.454,237.69 200.289,236.905 200.144,236.305C200.064,236.036 200.015,235.759 200,235.478C200.107,235.739 200.19,236.009 200.248,236.284C200.413,236.863 200.62,237.649 200.909,238.641C201.467,240.708 202.273,243.85 203.307,247.777C205.374,255.756 208.288,267.249 211.926,281.408C219.12,309.892 229.042,349.187 240.038,392.657L240.038,392.802C240.038,393.174 240.038,393.608 240.038,394.021C238.199,439.062 236.524,479.844 235.305,509.446C234.664,524.184 234.127,536.11 233.755,544.42C233.548,548.554 233.382,551.696 233.279,553.928C233.279,554.982 233.155,555.81 233.134,556.408C233.138,556.694 233.11,556.978 233.052,557.256Z" fill="#455A64"/>
<path d="M217.239,389.122C213.757,390.267 210.17,391.063 206.531,391.499C202.067,392.264 198.263,392.802 196.548,392.884L196.548,392.471C197.106,392.636 197.395,392.74 197.395,392.822C197.395,392.905 197.044,392.822 196.465,392.822L195.225,392.822L196.465,392.45C198.077,391.975 201.881,391.189 206.345,390.383C209.926,389.606 213.575,389.184 217.239,389.122Z" fill="#455A64"/>
<path d="M216.391,395.055C213.167,395.202 209.936,395.057 206.738,394.621C203.509,394.555 200.293,394.202 197.126,393.566C203.586,393.039 210.089,393.542 216.391,395.055Z" fill="#455A64"/>
<g opacity="0.2">
<path d="M115.436,238.765C116.522,240.159 117.889,241.309 119.45,242.138C121.01,242.968 122.727,243.46 124.49,243.581C128.182,244.018 131.917,243.949 135.59,243.374C159.258,240.749 184.331,238.331 207.503,232.688C177.51,234.362 145.822,233.804 115.829,235.478L115.519,238.041Z" fill="#000000"/>
</g>
<g opacity="0.2">
<path d="M146.339,281.036L163.247,346.645L162.069,283.806L146.339,281.036Z" fill="#000000"/>
</g>
</svg>
