<svg width="28" height="32" viewBox="0 0 28 32" fill="none" xmlns="http://www.w3.org/2000/svg" xmlns:xlink="http://www.w3.org/1999/xlink">
<path d="M16.196,15.855C17.632,15.223 18.85,14.182 19.699,12.862C20.548,11.543 20.99,10.003 20.971,8.434C21.024,7.414 20.87,6.394 20.516,5.436C20.163,4.478 19.618,3.602 18.915,2.861C18.212,2.12 17.365,1.53 16.427,1.127C15.489,0.724 14.478,0.516 13.457,0.516C12.436,0.516 11.425,0.724 10.487,1.127C9.548,1.53 8.702,2.12 7.999,2.861C7.296,3.602 6.751,4.478 6.398,5.436C6.044,6.394 5.89,7.414 5.943,8.434C5.912,10.019 6.35,11.577 7.204,12.913C8.057,14.248 9.287,15.301 10.739,15.938C-0.837,17.674 -0.32,30.242 -0.32,30.242L27.048,30.366C27.048,30.366 27.689,17.571 16.196,15.855Z" fill="#007AFF"/>
<g opacity="0.1">
<path d="M16.196,15.855C17.632,15.223 18.85,14.182 19.699,12.862C20.548,11.543 20.99,10.003 20.971,8.434C21.024,7.414 20.87,6.394 20.516,5.436C20.163,4.478 19.618,3.602 18.915,2.861C18.212,2.12 17.365,1.53 16.427,1.127C15.489,0.724 14.478,0.516 13.457,0.516C12.436,0.516 11.425,0.724 10.487,1.127C9.548,1.53 8.702,2.12 7.999,2.861C7.296,3.602 6.751,4.478 6.398,5.436C6.044,6.394 5.89,7.414 5.943,8.434C5.912,10.019 6.35,11.577 7.204,12.913C8.057,14.248 9.287,15.301 10.739,15.938C-0.837,17.674 -0.32,30.242 -0.32,30.242L27.048,30.366C27.048,30.366 27.689,17.571 16.196,15.855Z" fill="#000000"/>
</g>
</svg>
