<svg width="214" height="38" viewBox="0 0 214 38" fill="none" xmlns="http://www.w3.org/2000/svg" xmlns:xlink="http://www.w3.org/1999/xlink">
<path d="M208.09,36.646C208.508,36.597 208.924,36.521 209.332,36.419C209.906,36.236 210.436,35.933 210.884,35.531C211.334,35.128 211.692,34.635 211.936,34.083C212.26,33.248 212.388,32.35 212.308,31.458C212.308,30.445 212.308,29.391 212.308,28.171C212.308,25.794 212.308,23.045 212.308,19.903L212.308,6.777C212.406,5.827 212.196,4.87 211.708,4.049C211.186,3.222 210.388,2.607 209.456,2.313C208.426,2.121 207.378,2.059 206.334,2.127L176.589,2.127L4.301,1.486C3.374,1.488 2.479,1.827 1.784,2.439C1.088,3.051 0.638,3.895 0.518,4.814C0.518,6.881 0.518,8.948 0.518,11.015C0.518,15.149 0.518,19.283 0.518,23.417C0.518,25.484 0.518,27.551 0.518,29.618C0.441,30.577 0.483,31.542 0.642,32.491C0.889,33.335 1.423,34.066 2.151,34.559C2.91,35.054 3.81,35.286 4.714,35.22L13.706,35.22L59.45,35.468L136.902,35.943L189.116,36.357L203.316,36.522L189.116,36.522L136.902,36.522L59.45,36.295L13.706,36.109L4.714,36.109C3.595,36.184 2.483,35.886 1.551,35.261C0.611,34.61 -0.076,33.653 -0.392,32.553C-0.577,31.503 -0.632,30.434 -0.557,29.37C-0.557,27.303 -0.557,25.236 -0.557,23.169C-0.557,19.035 -0.557,14.901 -0.557,10.767C-0.557,8.7 -0.557,6.633 -0.557,4.462C-0.411,3.282 0.161,2.196 1.052,1.408C1.943,0.62 3.091,0.185 4.28,0.183L176.569,1.134L206.314,1.362C207.42,1.294 208.532,1.37 209.62,1.589C210.694,1.94 211.6,2.676 212.164,3.656C212.698,4.567 212.93,5.623 212.824,6.674C212.824,7.645 212.824,8.617 212.824,9.547C212.824,13.289 212.824,16.72 212.824,19.882C212.824,23.045 212.824,25.712 212.824,28.151C212.824,29.329 212.824,30.424 212.824,31.437C212.904,32.362 212.754,33.292 212.39,34.145C212.122,34.715 211.734,35.221 211.252,35.628C210.77,36.035 210.208,36.333 209.6,36.502C209.116,36.667 208.598,36.717 208.09,36.646Z" fill="#E0E0E0"/>
<path d="M23.524,19.779C23.463,20.611 23.159,21.406 22.651,22.066C22.142,22.727 21.45,23.223 20.662,23.494C19.874,23.765 19.023,23.799 18.216,23.591C17.408,23.383 16.68,22.943 16.12,22.325C15.561,21.707 15.195,20.938 15.069,20.114C14.942,19.29 15.06,18.447 15.408,17.689C15.757,16.932 16.32,16.293 17.027,15.853C17.735,15.412 18.557,15.189 19.39,15.211C20.542,15.275 21.621,15.791 22.395,16.646C23.169,17.501 23.575,18.627 23.524,19.779Z" fill="#007AFF"/>
<path d="M36.691,19.841C36.732,20.424 36.652,21.009 36.457,21.559C36.262,22.11 35.956,22.615 35.557,23.042C35.159,23.469 34.677,23.81 34.141,24.043C33.606,24.276 33.028,24.396 32.443,24.396C31.859,24.396 31.281,24.276 30.746,24.043C30.21,23.81 29.728,23.469 29.329,23.042C28.931,22.615 28.625,22.11 28.43,21.559C28.235,21.009 28.155,20.424 28.196,19.841C28.155,19.258 28.235,18.674 28.43,18.123C28.625,17.572 28.931,17.068 29.329,16.64C29.728,16.213 30.21,15.873 30.746,15.64C31.281,15.407 31.859,15.286 32.443,15.286C33.028,15.286 33.606,15.407 34.141,15.64C34.677,15.873 35.159,16.213 35.557,16.64C35.956,17.068 36.262,17.572 36.457,18.123C36.652,18.674 36.732,19.258 36.691,19.841Z" fill="#007AFF"/>
<path d="M49.879,19.903C49.818,20.735 49.514,21.53 49.006,22.19C48.497,22.851 47.805,23.347 47.017,23.618C46.229,23.889 45.378,23.923 44.571,23.715C43.763,23.507 43.035,23.067 42.475,22.449C41.916,21.831 41.55,21.062 41.424,20.238C41.297,19.414 41.415,18.571 41.763,17.813C42.112,17.056 42.674,16.417 43.382,15.977C44.09,15.536 44.912,15.313 45.745,15.335C46.895,15.404 47.971,15.922 48.744,16.776C49.517,17.629 49.924,18.752 49.879,19.903Z" fill="#007AFF"/>
<path d="M63.046,19.965C62.985,20.797 62.681,21.592 62.173,22.252C61.664,22.913 60.972,23.409 60.184,23.68C59.395,23.951 58.545,23.985 57.737,23.777C56.93,23.569 56.202,23.129 55.642,22.511C55.083,21.893 54.717,21.124 54.591,20.3C54.464,19.476 54.582,18.633 54.93,17.875C55.279,17.118 55.841,16.479 56.549,16.039C57.257,15.598 58.079,15.375 58.912,15.397C60.062,15.466 61.138,15.984 61.911,16.838C62.684,17.692 63.091,18.814 63.046,19.965Z" fill="#007AFF"/>
<path d="M76.213,20.007C76.156,20.839 75.856,21.637 75.349,22.3C74.843,22.963 74.152,23.463 73.364,23.737C72.576,24.012 71.724,24.048 70.915,23.842C70.106,23.637 69.376,23.198 68.814,22.58C68.253,21.962 67.885,21.193 67.757,20.369C67.629,19.544 67.747,18.7 68.094,17.941C68.442,17.182 69.005,16.543 69.714,16.101C70.422,15.66 71.245,15.437 72.079,15.459C73.225,15.528 74.299,16.043 75.071,16.892C75.843,17.742 76.253,18.859 76.213,20.007Z" fill="#007AFF"/>
<path d="M89.401,20.069C89.345,20.897 89.047,21.691 88.546,22.352C88.044,23.014 87.36,23.514 86.577,23.792C85.795,24.07 84.948,24.113 84.142,23.915C83.335,23.718 82.604,23.289 82.038,22.682C81.472,22.075 81.095,21.315 80.956,20.496C80.816,19.678 80.918,18.837 81.25,18.076C81.583,17.315 82.13,16.667 82.825,16.213C83.521,15.76 84.333,15.519 85.164,15.521C86.328,15.564 87.428,16.067 88.222,16.919C89.016,17.772 89.44,18.904 89.401,20.069Z" fill="#007AFF"/>
<path d="M102.568,20.131C102.609,20.713 102.529,21.298 102.334,21.849C102.139,22.399 101.833,22.904 101.434,23.331C101.036,23.758 100.554,24.099 100.018,24.332C99.482,24.565 98.905,24.685 98.32,24.685C97.736,24.685 97.158,24.565 96.623,24.332C96.087,24.099 95.605,23.758 95.206,23.331C94.808,22.904 94.502,22.399 94.307,21.849C94.112,21.298 94.032,20.713 94.073,20.131C94.032,19.548 94.112,18.963 94.307,18.412C94.502,17.862 94.808,17.357 95.206,16.93C95.605,16.503 96.087,16.162 96.623,15.929C97.158,15.696 97.736,15.576 98.32,15.576C98.905,15.576 99.482,15.696 100.018,15.929C100.554,16.162 101.036,16.503 101.434,16.93C101.833,17.357 102.139,17.862 102.334,18.412C102.529,18.963 102.609,19.548 102.568,20.131Z" fill="#007AFF"/>
<path d="M115.735,20.193C115.679,21.021 115.382,21.815 114.88,22.476C114.378,23.138 113.694,23.638 112.911,23.916C112.129,24.194 111.282,24.237 110.476,24.039C109.669,23.842 108.938,23.413 108.372,22.806C107.806,22.199 107.43,21.439 107.29,20.62C107.15,19.802 107.252,18.96 107.585,18.2C107.917,17.439 108.464,16.791 109.16,16.337C109.855,15.884 110.668,15.643 111.498,15.645C112.662,15.688 113.762,16.191 114.556,17.043C115.35,17.896 115.774,19.028 115.735,20.193Z" fill="#007AFF"/>
<path d="M128.903,20.255C128.846,21.087 128.545,21.885 128.038,22.548C127.532,23.211 126.842,23.711 126.053,23.985C125.265,24.26 124.413,24.296 123.605,24.09C122.796,23.885 122.065,23.446 121.504,22.828C120.942,22.21 120.575,21.441 120.447,20.617C120.319,19.792 120.436,18.948 120.784,18.189C121.132,17.43 121.695,16.791 122.403,16.349C123.112,15.908 123.934,15.685 124.768,15.707C125.914,15.776 126.988,16.291 127.76,17.14C128.532,17.99 128.942,19.107 128.903,20.255Z" fill="#007AFF"/>
</svg>
