<svg width="214" height="36" viewBox="0 0 214 36" fill="none" xmlns="http://www.w3.org/2000/svg" xmlns:xlink="http://www.w3.org/1999/xlink">
<path d="M208.504,35.815C208.922,35.764 209.336,35.688 209.746,35.588C210.322,35.404 210.854,35.098 211.304,34.692C211.752,34.285 212.11,33.787 212.35,33.231C212.676,32.397 212.802,31.498 212.722,30.606C212.722,29.614 212.722,28.539 212.722,27.34C212.722,24.942 212.722,22.214 212.722,19.072L212.722,5.946C212.82,4.996 212.61,4.039 212.122,3.218C211.612,2.375 210.81,1.75 209.87,1.461C208.84,1.277 207.792,1.221 206.748,1.295L177.003,1.295L4.714,0.654C3.787,0.657 2.893,0.995 2.197,1.607C1.501,2.219 1.051,3.063 0.931,3.982C0.931,5.946 0.931,8.116 0.931,10.183C0.931,14.318 0.931,18.452 0.931,22.586C0.931,24.653 0.931,26.72 0.931,28.787C0.854,29.753 0.896,30.725 1.055,31.681C1.313,32.519 1.845,33.247 2.564,33.748C3.328,34.232 4.225,34.464 5.127,34.409L8.001,34.409L13.974,34.409L59.718,34.637L137.171,35.112L189.384,35.525L203.586,35.691L189.384,35.691L137.171,35.691L59.677,35.608L13.933,35.443L4.941,35.443C3.823,35.509 2.714,35.212 1.779,34.595C0.838,33.944 0.152,32.987 -0.164,31.887C-0.35,30.837 -0.405,29.768 -0.33,28.704C-0.33,26.637 -0.33,24.57 -0.33,22.503C-0.33,18.369 -0.33,14.235 -0.33,10.101C-0.33,8.034 -0.33,5.967 -0.33,3.9C-0.179,2.718 0.398,1.631 1.292,0.844C2.186,0.056 3.336,-0.379 4.528,-0.379L176.817,0.572L206.562,0.799C207.67,0.731 208.782,0.808 209.87,1.026C210.944,1.377 211.85,2.114 212.412,3.093C212.946,4.004 213.178,5.061 213.074,6.111C213.074,7.083 213.074,8.034 213.074,8.985C213.074,12.726 213.074,16.157 213.074,19.32C213.074,22.482 213.074,25.149 213.074,27.588C213.074,28.766 213.074,29.862 213.074,30.875C213.148,31.799 213,32.728 212.64,33.582C212.37,34.153 211.982,34.659 211.502,35.065C211.02,35.472 210.456,35.77 209.848,35.939C209.396,35.976 208.942,35.934 208.504,35.815Z" fill="#E0E0E0"/>
<path d="M111.945,13.408L14.711,13.408L14.711,22.524L111.945,22.524L111.945,13.408Z" transform="rotate(0.52 63.328 17.966)" fill="#007AFF"/>
<g opacity="0.2">
<path d="M111.945,13.408L14.711,13.408L14.711,22.524L111.945,22.524L111.945,13.408Z" transform="rotate(0.52 63.328 17.966)" fill="#FFFFFF"/>
</g>
</svg>
