<svg width="48" height="48" viewBox="0 0 48 48" fill="none" xmlns="http://www.w3.org/2000/svg" xmlns:xlink="http://www.w3.org/1999/xlink">
<path d="M44,17.04L44,7.96C44,5.14 42.72,4 39.54,4L31.46,4C28.28,4 27,5.14 27,7.96L27,17.02C27,19.86 28.28,20.98 31.46,20.98L39.54,20.98C42.72,21 44,19.86 44,17.04Z" fill="#0B63F8"/>
<path d="M44,39.54L44,31.46C44,28.28 42.72,27 39.54,27L31.46,27C28.28,27 27,28.28 27,31.46L27,39.54C27,42.72 28.28,44 31.46,44L39.54,44C42.72,44 44,42.72 44,39.54Z" fill="#0B63F8"/>
<path d="M21,17.04L21,7.96C21,5.14 19.72,4 16.54,4L8.46,4C5.28,4 4,5.14 4,7.96L4,17.02C4,19.86 5.28,20.98 8.46,20.98L16.54,20.98C19.72,21 21,19.86 21,17.04Z" fill="#0B63F8"/>
<path d="M21,39.54L21,31.46C21,28.28 19.72,27 16.54,27L8.46,27C5.28,27 4,28.28 4,31.46L4,39.54C4,42.72 5.28,44 8.46,44L16.54,44C19.72,44 21,42.72 21,39.54Z" fill="#0B63F8"/>
</svg>
