<svg width="884" height="660" viewBox="0 0 884 660" fill="none" xmlns="http://www.w3.org/2000/svg" xmlns:xlink="http://www.w3.org/1999/xlink">
<path d="M441.534,658.99C630.654,658.99 783.968,650.039 783.968,638.997C783.968,627.956 630.654,619.005 441.534,619.005C252.411,619.005 99.098,627.956 99.098,638.997C99.098,650.039 252.411,658.99 441.534,658.99Z" fill="#F5F5F5"/>
<path d="M616.821,192.502L599.301,185.437C599.301,185.437 576.183,227.595 569.56,229.732C560.552,232.628 541.902,240.682 530.846,242.094C529.345,243.861 526.89,249.353 527.12,251.349C541.973,256.312 574.611,249.724 581.605,244.532C597.517,232.752 616.821,192.502 616.821,192.502Z" fill="#E58A7B"/>
<path d="M622.208,182.911C625.475,194.974 607.779,219.241 607.779,219.241L584.589,206.242C584.589,206.242 588.934,196.263 594.233,186.108C602.728,169.701 618.481,169.153 622.208,182.911Z" fill="#007AFF"/>
<g opacity="0.2">
<path d="M622.208,182.911C625.475,194.974 607.779,219.241 607.779,219.241L584.589,206.242C584.589,206.242 588.934,196.263 594.233,186.108C602.728,169.701 618.481,169.153 622.208,182.911Z" fill="#000000"/>
</g>
<g opacity="0.2">
<path d="M593.791,211.435L602.922,216.556L604.529,188.528C599.213,192.608 595.469,204.9 593.791,211.435Z" fill="#000000"/>
</g>
<path d="M606.949,173.834C606.949,173.834 588.899,213.995 599.425,288.773L670.547,288.773C671.677,277.859 667.933,224.592 681.479,173.163C673.677,171.638 665.783,170.629 657.849,170.142C647.784,169.559 637.694,169.559 627.63,170.142C620.653,170.851 613.74,172.085 606.949,173.834Z" fill="#007AFF"/>
<g opacity="0.2">
<path d="M606.949,173.834C606.949,173.834 588.899,213.995 599.425,288.773L670.547,288.773C671.677,277.859 667.933,224.592 681.479,173.163C673.677,171.638 665.783,170.629 657.849,170.142C647.784,169.559 637.694,169.559 627.63,170.142C620.653,170.851 613.74,172.085 606.949,173.834Z" fill="#000000"/>
</g>
<g style="mix-blend-mode:multiply">
<path d="M590.453,640.587C590.347,642.494 617.316,644.031 650.678,644.031C684.04,644.031 711.203,642.494 711.309,640.587C711.415,638.68 684.464,637.161 651.084,637.161C617.704,637.161 590.577,638.697 590.453,640.587Z" fill="#E8ECF1"/>
</g>
<path d="M643.817,591.896L630.29,591.896L630.29,621.996L643.817,621.996L643.817,591.896Z" transform="rotate(-42.323 637.053 606.946)" fill="#E58A7B"/>
<path d="M694.178,627.005L680.879,627.005L676.004,596.222L689.303,596.222L694.178,627.005Z" fill="#E58A7B"/>
<path d="M679.961,625.469L694.902,625.469C695.161,625.47 695.412,625.562 695.609,625.73C695.806,625.899 695.938,626.131 695.979,626.387L697.904,638.203C697.945,638.499 697.921,638.801 697.835,639.087C697.748,639.374 697.601,639.638 697.404,639.863C697.206,640.087 696.962,640.266 696.689,640.388C696.416,640.51 696.12,640.572 695.82,640.569C690.61,640.481 688.102,640.163 681.532,640.163C677.488,640.163 669.169,640.587 663.553,640.587C657.937,640.587 657.566,635.077 659.88,634.564C670.264,632.321 674.291,629.266 677.753,626.299C678.363,625.763 679.148,625.468 679.961,625.469Z" fill="#263238"/>
<path d="M635.807,620.912L649.936,616.779C650.188,616.708 650.457,616.726 650.698,616.828C650.939,616.931 651.138,617.113 651.261,617.345L656.559,627.941C656.682,628.21 656.745,628.503 656.743,628.798C656.742,629.094 656.676,629.386 656.549,629.653C656.423,629.921 656.24,630.157 656.013,630.347C655.786,630.536 655.52,630.673 655.235,630.749C650.095,632.162 646.651,633.028 640.222,634.9C635.79,636.189 631.268,638.291 626.888,639.686C623.851,640.658 616.715,640.693 613.024,640.693C607.567,640.693 606.348,634.935 608.697,634.67C614.614,634.017 615.408,634.317 618.676,632.675C624.022,630.338 628.867,626.992 632.946,622.82C633.715,621.943 634.702,621.285 635.807,620.912Z" fill="#263238"/>
<path d="M533.071,242.024L518.448,235.896L512.425,252.109C518.419,253.022 524.517,253.022 530.51,252.109L533.071,242.024Z" fill="#E58A7B"/>
<path d="M507.568,235.472L507.18,246.245L512.425,252.073L518.448,235.86L507.568,235.472Z" fill="#E58A7B"/>
<path d="M642.915,594.773L629.351,594.773L629.351,610.333L642.915,610.333L642.915,594.773Z" transform="rotate(-42.22 636.133 602.553)" fill="#CF6F64"/>
<path d="M689.303,596.222L676.004,596.222L678.53,612.099L691.829,612.099L689.303,596.222Z" fill="#CF6F64"/>
<g opacity="0.2">
<path d="M597.164,268.551C597.429,271.748 597.729,275.015 598.118,278.371L650.996,261.204C659.254,258.757 666.43,253.567 671.342,246.492C671.554,241.777 671.819,236.814 672.225,231.639C672.402,229.131 672.614,226.553 672.843,223.939C673.073,221.325 673.391,218.428 673.726,215.638L597.164,268.551Z" fill="#000000"/>
</g>
<path d="M614.437,210.622L612.671,210.41C613.713,201.579 620.301,194.621 627.241,194.797L627.241,196.564C621.166,196.44 615.373,202.71 614.437,210.622Z" fill="#FFFFFF"/>
<path d="M623.851,226.923L623.55,226.923L623.55,225.157C629.626,225.387 635.33,219.046 636.266,211.152L638.033,211.364C637.097,220 630.721,226.923 623.851,226.923Z" fill="#FFFFFF"/>
<path d="M656.86,136.109C654.369,145.84 651.438,163.66 657.849,170.142C657.849,170.142 653.363,180.015 635.295,180.015C618.782,180.015 627.63,170.142 627.63,170.142C638.615,167.564 638.81,159.545 637.361,151.951L656.86,136.109Z" fill="#E58A7B"/>
<path d="M648.912,142.573L637.379,151.951C637.737,153.696 637.943,155.469 637.997,157.25C641.371,160.605 648.135,152.11 648.824,147.765C649.174,146.055 649.204,144.294 648.912,142.573Z" fill="#CF6F64"/>
<path d="M617.546,135.985C618.348,137.376 619.429,138.587 620.72,139.541C622.012,140.495 623.486,141.173 625.052,141.531C629.29,142.467 631.41,138.564 630.244,134.643C629.202,131.111 625.723,126.36 621.413,127.172C620.49,127.363 619.626,127.771 618.893,128.364C618.161,128.957 617.581,129.716 617.202,130.579C616.823,131.442 616.657,132.384 616.716,133.324C616.776,134.265 617.061,135.177 617.546,135.985Z" fill="#CF6F64"/>
<path d="M624.557,104.849C617.952,107.869 615.62,134.113 623.921,137.999C632.222,141.884 637.061,99.109 624.557,104.849Z" fill="#263238"/>
<path d="M658.873,121.468C657.283,134.643 657.107,142.396 650.042,149.143C647.853,151.382 645.088,152.972 642.052,153.738C639.016,154.505 635.827,154.417 632.838,153.485C629.848,152.553 627.175,150.813 625.112,148.458C623.049,146.102 621.677,143.222 621.148,140.136C619.011,128.303 621.961,108.752 635.171,103.506C637.947,102.282 641,101.822 644.013,102.175C647.026,102.528 649.89,103.68 652.308,105.512C654.726,107.345 656.609,109.79 657.764,112.596C658.918,115.401 659.301,118.464 658.873,121.468Z" fill="#E58A7B"/>
<path d="M637.167,111.666C646.951,109.176 654.14,107.48 651.561,115.622C648.152,126.501 644.055,137.027 649.548,137.504C652.903,137.805 667.739,131.517 665.849,125.141C664.207,119.596 671.147,118.077 672.384,115.269C676.958,105.096 663.871,106.438 666.202,100.257C668.534,94.075 655.606,84.114 648.541,89.077C637.043,97.095 617.316,96.972 627.683,83.779C635.118,74.365 621.855,76.29 621.855,76.29C621.855,76.29 629.873,81.041 616.38,88.388C602.109,96.23 615.196,117.3 637.167,111.666Z" fill="#263238"/>
<path d="M664.065,135.985C662.134,138.78 659.232,140.757 655.924,141.531C651.561,142.467 649.883,138.564 651.526,134.643C652.992,131.111 657.019,126.36 661.187,127.172C665.355,127.985 666.308,132.524 664.065,135.985Z" fill="#E58A7B"/>
<path d="M599.425,288.773C599.425,288.773 587.486,395.624 586.55,436.175C585.596,478.35 627.012,609.945 627.012,609.945L648.205,601.113C648.205,601.113 623.48,480.876 627.012,439.46C630.756,394.3 646.227,288.844 646.227,288.844L599.425,288.773Z" fill="#007AFF"/>
<g opacity="0.2">
<path d="M629.096,318.109C619.577,337.854 625.988,376.903 631.145,400.04C633.105,383.703 635.436,365.971 637.644,349.564C637.432,324.343 635.472,304.863 629.096,318.109Z" fill="#000000"/>
</g>
<path d="M647.269,594.12C647.375,594.12 649.777,600.867 649.777,600.867L625.334,611.145L621.484,603.975L647.269,594.12Z" fill="#007AFF"/>
<path d="M624.663,288.773C624.663,288.773 633.794,390.397 639.834,428.457C646.475,470.155 672.507,609.025 672.507,609.025L696.862,609.025C696.862,609.025 682.274,473.528 679.519,432.236C676.517,387.447 670.547,288.773 670.547,288.773L624.663,288.773Z" fill="#007AFF"/>
<path d="M697.233,602.686C697.339,602.686 698.046,609.485 698.046,609.485L671.271,609.485L669.364,601.679L697.233,602.686Z" fill="#007AFF"/>
<g opacity="0.2">
<path d="M687.908,594.633C687.853,594.633 687.799,594.615 687.757,594.579C687.715,594.543 687.687,594.493 687.679,594.439C687.537,593.203 674.38,470.809 671.907,433.72C669.223,393.488 663.818,304.245 663.765,303.344C663.763,303.315 663.766,303.285 663.776,303.258C663.785,303.23 663.801,303.204 663.821,303.183C663.841,303.161 663.865,303.144 663.892,303.132C663.919,303.12 663.948,303.114 663.977,303.115C664.035,303.114 664.091,303.136 664.134,303.175C664.176,303.215 664.202,303.269 664.207,303.326C664.207,304.227 669.664,393.399 672.349,433.702C674.821,470.791 687.979,593.097 688.102,594.421C688.107,594.449 688.106,594.479 688.099,594.509C688.092,594.537 688.079,594.565 688.06,594.587C688.042,594.611 688.019,594.629 687.993,594.643C687.967,594.657 687.938,594.665 687.908,594.669L687.908,594.633Z" fill="#000000"/>
</g>
<path d="M638.668,125.141C638.668,126.219 637.997,127.084 637.291,127.084C636.584,127.084 636.072,126.219 636.143,125.141C636.214,124.064 636.814,123.198 637.52,123.198C638.227,123.198 638.739,124.082 638.668,125.141Z" fill="#263238"/>
<path d="M626.553,125.141C626.553,126.219 625.864,127.084 625.175,127.084C624.486,127.084 623.957,126.219 624.01,125.141C624.062,124.064 624.698,123.198 625.405,123.198C626.111,123.198 626.623,124.082 626.553,125.141Z" fill="#263238"/>
<path d="M630.368,125.689C628.893,128.979 626.993,132.06 624.716,134.855C626.482,136.621 629.785,135.809 629.785,135.809L630.368,125.689Z" fill="#DF5753"/>
<path d="M630.685,140.312C630.644,140.312 630.604,140.304 630.566,140.288C630.529,140.272 630.495,140.248 630.467,140.218C630.438,140.189 630.417,140.153 630.403,140.115C630.389,140.076 630.383,140.035 630.385,139.994C630.39,139.909 630.427,139.828 630.49,139.769C630.552,139.709 630.635,139.676 630.721,139.677C632.072,139.686 633.407,139.393 634.63,138.818C635.852,138.243 636.93,137.402 637.785,136.356C637.846,136.303 637.925,136.273 638.006,136.273C638.087,136.273 638.166,136.303 638.227,136.356C638.284,136.416 638.316,136.495 638.316,136.577C638.316,136.659 638.284,136.739 638.227,136.798C637.312,137.909 636.16,138.802 634.855,139.41C633.55,140.018 632.125,140.327 630.685,140.312Z" fill="#263238"/>
<path d="M640.823,121.892C640.738,121.935 640.645,121.958 640.549,121.958C640.454,121.958 640.36,121.935 640.276,121.892C639.615,121.464 638.863,121.199 638.081,121.116C637.298,121.033 636.507,121.135 635.772,121.415C635.7,121.451 635.622,121.472 635.542,121.477C635.462,121.482 635.382,121.471 635.306,121.445C635.23,121.418 635.161,121.377 635.101,121.324C635.042,121.27 634.994,121.205 634.96,121.132C634.894,120.975 634.892,120.798 634.955,120.64C635.018,120.482 635.14,120.354 635.295,120.284C636.218,119.907 637.219,119.759 638.212,119.851C639.205,119.943 640.162,120.274 641,120.814C641.067,120.86 641.125,120.919 641.17,120.988C641.215,121.056 641.245,121.133 641.26,121.214C641.275,121.294 641.274,121.377 641.256,121.457C641.239,121.537 641.206,121.613 641.159,121.68C641.069,121.781 640.953,121.854 640.823,121.892Z" fill="#263238"/>
<path d="M621.872,118.36C621.778,118.337 621.693,118.288 621.625,118.218C621.566,118.161 621.52,118.092 621.488,118.016C621.456,117.94 621.44,117.859 621.44,117.777C621.44,117.694 621.456,117.613 621.488,117.537C621.52,117.461 621.566,117.393 621.625,117.335C622.302,116.576 623.145,115.983 624.089,115.603C625.032,115.224 626.051,115.067 627.065,115.145C627.146,115.158 627.224,115.187 627.294,115.231C627.363,115.274 627.423,115.332 627.469,115.4C627.516,115.468 627.547,115.545 627.563,115.625C627.579,115.706 627.577,115.789 627.559,115.869C627.522,116.033 627.425,116.177 627.289,116.274C627.152,116.372 626.985,116.416 626.818,116.399C626.015,116.349 625.212,116.481 624.468,116.787C623.725,117.093 623.06,117.565 622.526,118.165C622.445,118.255 622.342,118.32 622.227,118.354C622.111,118.389 621.989,118.39 621.872,118.36Z" fill="#263238"/>
<path d="M688.314,190.541L669.947,185.649C669.947,185.649 651.932,229.997 645.556,232.875C636.902,236.831 614.985,250.537 605.659,257.018C605.147,259.226 605.553,265.072 606.719,266.679C622.614,263.783 653.045,252.073 659.403,246.121C673.903,232.54 688.314,190.541 688.314,190.541Z" fill="#E58A7B"/>
<path d="M675.492,627.8C674.596,627.871 673.703,627.627 672.967,627.111C672.739,626.906 672.569,626.645 672.473,626.354C672.377,626.062 672.359,625.751 672.419,625.451C672.43,625.263 672.492,625.082 672.598,624.927C672.703,624.771 672.849,624.647 673.02,624.568C674.503,623.808 678.654,626.44 679.13,626.74C679.183,626.773 679.223,626.821 679.246,626.878C679.268,626.936 679.271,626.999 679.254,627.058C679.239,627.12 679.208,627.177 679.165,627.223C679.122,627.269 679.067,627.304 679.007,627.323C677.855,627.606 676.677,627.766 675.492,627.8ZM673.726,625.045C673.592,625.015 673.454,625.015 673.32,625.045C673.252,625.079 673.196,625.133 673.158,625.198C673.121,625.264 673.103,625.34 673.108,625.416C673.061,625.621 673.069,625.835 673.131,626.037C673.193,626.238 673.307,626.42 673.461,626.564C674.15,627.182 675.881,627.252 678.159,626.811C676.802,625.917 675.275,625.316 673.673,625.045L673.726,625.045Z" fill="#007AFF"/>
<path d="M678.919,627.323C678.873,627.338 678.823,627.338 678.777,627.323C677.453,626.581 674.962,623.667 675.333,622.184C675.389,621.948 675.522,621.739 675.711,621.588C675.9,621.438 676.134,621.355 676.375,621.354C676.612,621.322 676.853,621.342 677.082,621.412C677.311,621.482 677.521,621.601 677.7,621.76C679.166,623.014 679.254,626.864 679.254,627.058C679.263,627.116 679.252,627.175 679.223,627.227C679.194,627.278 679.149,627.318 679.095,627.341C679.036,627.353 678.974,627.347 678.919,627.323ZM676.552,621.936L676.428,621.936C676.022,621.936 675.969,622.166 675.951,622.254C675.739,623.12 677.311,625.327 678.618,626.369C678.612,624.877 678.15,623.423 677.294,622.201C677.089,622.022 676.824,621.928 676.552,621.936Z" fill="#007AFF"/>
<path d="M628.601,625.592C627.521,625.969 626.344,625.969 625.263,625.592C625.018,625.459 624.81,625.267 624.659,625.032C624.507,624.797 624.418,624.529 624.398,624.25C624.376,624.075 624.398,623.898 624.463,623.734C624.528,623.571 624.633,623.426 624.769,623.314C626.182,622.042 631.957,623.314 632.611,623.561C632.673,623.577 632.728,623.614 632.766,623.665C632.805,623.717 632.824,623.78 632.822,623.844C632.825,623.91 632.808,623.976 632.774,624.032C632.739,624.089 632.688,624.134 632.628,624.162C631.328,624.749 629.981,625.227 628.601,625.592ZM625.723,623.491C625.521,623.531 625.332,623.622 625.175,623.756C625.119,623.798 625.076,623.855 625.051,623.92C625.026,623.986 625.02,624.058 625.034,624.126C625.045,624.312 625.103,624.491 625.202,624.649C625.301,624.806 625.437,624.936 625.599,625.027C626.535,625.522 628.707,625.133 631.516,623.95C629.624,623.473 627.666,623.317 625.723,623.491Z" fill="#007AFF"/>
<path d="M632.575,624.162L632.434,624.162C630.668,623.844 627.136,621.813 627.03,620.294C627.03,619.941 627.189,619.446 628.036,619.164C628.323,619.062 628.627,619.019 628.93,619.037C629.234,619.055 629.53,619.134 629.802,619.27C631.71,620.206 632.716,623.597 632.769,623.756C632.782,623.809 632.78,623.865 632.765,623.917C632.749,623.97 632.721,624.018 632.681,624.056C632.655,624.099 632.618,624.136 632.575,624.162ZM628.389,619.694L628.213,619.694C627.665,619.888 627.665,620.117 627.665,620.188C627.665,621.106 630.226,622.784 632.01,623.349C631.599,621.931 630.73,620.689 629.537,619.817C629.183,619.637 628.774,619.593 628.389,619.694Z" fill="#007AFF"/>
<path d="M607.161,255.976L588.74,264.454L586.603,269.752L593.402,274.326C593.402,274.326 606.119,272.949 609.739,264.772L607.161,255.976Z" fill="#E58A7B"/>
<path d="M607.938,266.979C607.526,263.44 606.358,260.031 604.511,256.983L607.426,254.793C609.618,258.305 611.016,262.253 611.523,266.361L607.938,266.979Z" fill="#263238"/>
<path d="M611.081,258.484C611.471,259.097 611.662,259.814 611.629,260.539C611.596,261.265 611.341,261.962 610.898,262.537C610.454,263.111 609.845,263.536 609.152,263.752C608.459,263.968 607.716,263.965 607.025,263.744C606.334,263.523 605.727,263.094 605.288,262.517C604.849,261.939 604.599,261.239 604.571,260.514C604.543,259.789 604.74,259.073 605.134,258.463C605.527,257.853 606.099,257.38 606.772,257.107C607.527,256.722 608.403,256.651 609.21,256.909C610.017,257.167 610.69,257.733 611.081,258.484Z" fill="#263238"/>
<path d="M576.289,271.306L578.744,273.779L595.274,266.714L588.74,264.454L576.289,271.306Z" fill="#E58A7B"/>
<g opacity="0.2">
<path d="M647.269,594.12C647.375,594.12 649.777,600.867 649.777,600.867L625.334,611.145L621.484,603.975L647.269,594.12Z" fill="#000000"/>
</g>
<g opacity="0.2">
<path d="M697.233,602.686C697.339,602.686 698.046,609.485 698.046,609.485L671.271,609.485L669.364,601.679L697.233,602.686Z" fill="#000000"/>
</g>
<path d="M693.101,185.455C697.958,201.12 678.972,222.543 678.972,222.543L652.745,211.841C655.853,202.786 659.438,193.902 663.483,185.225C671.536,167.864 688.191,169.648 693.101,185.455Z" fill="#007AFF"/>
<g opacity="0.2">
<path d="M693.101,185.455C697.958,201.12 678.972,222.543 678.972,222.543L652.745,211.841C655.853,202.786 659.438,193.902 663.483,185.225C671.536,167.864 688.191,169.648 693.101,185.455Z" fill="#000000"/>
</g>
<rect  x="421.205" y="28.499" width="11.286" height="1.819" fill="#007AFF"/>
<path d="M593.978,114.785L563.636,114.785L563.636,116.604L593.978,116.604L593.978,114.785Z" transform="rotate(-174.84 578.807 115.694)" fill="#007AFF"/>
<path d="M575.07,36.658L366.667,36.658L347.274,470.632L555.678,470.632L575.07,36.658Z" fill="#007AFF"/>
<g opacity="0.56">
<path d="M568.854,42.628L360.45,42.628L341.058,476.602L549.462,476.602L568.854,42.628Z" fill="#FAFAFA"/>
</g>
<g opacity="0.07">
<path d="M562.637,48.58L354.233,48.58L334.823,482.554L543.227,482.554L562.637,48.58Z" fill="#007AFF"/>
</g>
<path d="M538.917,237.856L361.033,237.856L359.549,271.059L537.434,271.059L538.917,237.856Z" fill="#FFFFFF"/>
<path d="M458.859,213.625L362.11,213.625L361.457,228.478L458.205,228.478L458.859,213.625Z" fill="#007AFF"/>
<path d="M534.908,327.469L357.023,327.469L355.54,360.673L533.425,360.673L534.908,327.469Z" fill="#FFFFFF"/>
<g opacity="0.47">
<path d="M502.288,405.515L382.668,405.515L380.884,445.306L500.504,445.306L502.288,405.515Z" fill="#007AFF"/>
</g>
<path d="M494.287,451.487L374.667,451.487C374.615,451.501 374.56,451.501 374.508,451.487C374.491,451.436 374.491,451.38 374.508,451.328L376.274,411.52C376.274,411.493 376.28,411.466 376.291,411.441C376.301,411.416 376.317,411.394 376.337,411.376C376.357,411.357 376.381,411.343 376.407,411.335C376.432,411.326 376.459,411.323 376.486,411.325L496.106,411.325C496.128,411.314 496.153,411.309 496.177,411.309C496.202,411.309 496.226,411.314 496.248,411.325C496.26,411.347 496.267,411.371 496.267,411.396C496.267,411.421 496.26,411.445 496.248,411.467L494.517,451.364C494.496,451.405 494.462,451.439 494.421,451.461C494.38,451.483 494.334,451.492 494.287,451.487ZM374.879,451.063L494.075,451.063L495.842,411.679L376.645,411.679L374.879,451.063Z" fill="#FFFFFF"/>
<path d="M437.965,303.238L358.101,303.238L357.447,318.109L437.294,318.109L437.965,303.238Z" fill="#007AFF"/>
<path d="M500.01,130.599C499.553,140.262 496.117,149.547 490.172,157.179C485.772,162.944 480.109,167.624 473.619,170.86C467.128,174.096 459.983,175.802 452.73,175.847C446.87,175.892 441.062,174.736 435.665,172.451C430.268,170.166 425.396,166.801 421.349,162.562C417.301,158.323 414.165,153.3 412.133,147.803C410.1,142.306 409.215,136.451 409.531,130.599C410.152,118.455 415.389,107.007 424.17,98.596C432.952,90.185 444.615,85.447 456.775,85.35C462.64,85.296 468.454,86.444 473.857,88.725C479.261,91.006 484.139,94.371 488.191,98.611C492.243,102.852 495.383,107.879 497.415,113.38C499.448,118.882 500.331,124.742 500.01,130.599Z" fill="#FFFFFF"/>
<path d="M504.266,94.817C504.151,97.386 503.237,99.856 501.652,101.882C500.479,103.413 498.972,104.656 497.246,105.516C495.52,106.376 493.62,106.83 491.691,106.844C489.822,106.856 487.979,106.409 486.323,105.544C484.667,104.679 483.248,103.422 482.189,101.882C480.788,99.8 480.094,97.323 480.211,94.817C480.382,91.593 481.776,88.555 484.11,86.323C486.443,84.092 489.54,82.834 492.768,82.807C494.326,82.793 495.87,83.098 497.305,83.703C498.741,84.308 500.037,85.201 501.114,86.326C502.191,87.451 503.026,88.785 503.568,90.245C504.11,91.706 504.348,93.262 504.266,94.817Z" fill="#007AFF"/>
<path d="M380.195,254.458C380.11,255.881 379.489,257.219 378.457,258.202C377.424,259.186 376.057,259.741 374.632,259.756C373.943,259.764 373.261,259.631 372.626,259.365C371.991,259.099 371.417,258.705 370.941,258.209C370.464,257.712 370.094,257.123 369.854,256.478C369.614,255.833 369.509,255.145 369.545,254.458C369.622,253.032 370.241,251.689 371.275,250.704C372.309,249.719 373.68,249.166 375.109,249.159C375.796,249.154 376.478,249.289 377.111,249.556C377.745,249.823 378.318,250.216 378.794,250.712C379.27,251.208 379.64,251.796 379.881,252.44C380.122,253.084 380.229,253.771 380.195,254.458Z" fill="#263238"/>
<path d="M404.003,254.458C403.922,255.882 403.302,257.223 402.269,258.207C401.235,259.191 399.866,259.745 398.439,259.756C397.752,259.762 397.072,259.627 396.439,259.36C395.806,259.093 395.235,258.699 394.76,258.202C394.285,257.706 393.917,257.118 393.678,256.474C393.439,255.83 393.334,255.144 393.371,254.458C393.447,253.035 394.063,251.694 395.094,250.71C396.124,249.725 397.491,249.171 398.916,249.159C399.605,249.151 400.287,249.284 400.922,249.55C401.557,249.816 402.131,250.21 402.607,250.707C403.084,251.203 403.454,251.792 403.694,252.437C403.934,253.083 404.039,253.77 404.003,254.458Z" fill="#263238"/>
<path d="M427.828,254.458C427.747,255.882 427.127,257.223 426.094,258.207C425.06,259.191 423.691,259.745 422.264,259.756C421.577,259.762 420.895,259.627 420.262,259.36C419.628,259.093 419.055,258.699 418.579,258.203C418.103,257.707 417.733,257.119 417.492,256.475C417.251,255.831 417.144,255.144 417.178,254.458C417.259,253.033 417.879,251.693 418.912,250.708C419.945,249.724 421.314,249.17 422.741,249.159C423.43,249.151 424.112,249.284 424.747,249.55C425.382,249.816 425.956,250.21 426.432,250.707C426.909,251.203 427.279,251.792 427.519,252.437C427.759,253.083 427.864,253.77 427.828,254.458Z" fill="#263238"/>
<path d="M376.186,344.071C376.101,345.494 375.48,346.832 374.448,347.816C373.415,348.799 372.048,349.354 370.623,349.369C369.935,349.375 369.254,349.24 368.62,348.973C367.986,348.706 367.414,348.313 366.937,347.817C366.461,347.32 366.091,346.732 365.85,346.088C365.609,345.444 365.503,344.758 365.536,344.071C365.617,342.646 366.237,341.306 367.27,340.322C368.303,339.338 369.673,338.784 371.1,338.773C371.787,338.767 372.469,338.902 373.102,339.169C373.736,339.436 374.309,339.829 374.785,340.326C375.261,340.822 375.631,341.41 375.872,342.054C376.113,342.698 376.22,343.384 376.186,344.071Z" fill="#263238"/>
<path d="M399.993,344.071C399.913,345.493 399.295,346.831 398.266,347.814C397.236,348.798 395.872,349.354 394.448,349.369C393.759,349.378 393.077,349.245 392.442,348.978C391.807,348.712 391.233,348.319 390.757,347.822C390.28,347.326 389.91,346.736 389.67,346.091C389.43,345.446 389.325,344.758 389.361,344.071C389.442,342.646 390.062,341.306 391.095,340.322C392.129,339.338 393.498,338.784 394.925,338.773C395.612,338.767 396.292,338.902 396.925,339.169C397.558,339.436 398.129,339.83 398.604,340.326C399.079,340.823 399.447,341.411 399.686,342.055C399.925,342.699 400.03,343.385 399.993,344.071Z" fill="#263238"/>
<path d="M423.872,344.071C423.791,345.496 423.171,346.836 422.138,347.82C421.104,348.805 419.735,349.358 418.308,349.37C417.621,349.373 416.941,349.236 416.308,348.968C415.676,348.7 415.104,348.307 414.629,347.811C414.153,347.316 413.783,346.729 413.541,346.086C413.299,345.443 413.191,344.757 413.222,344.071C413.307,342.648 413.928,341.31 414.96,340.327C415.993,339.343 417.359,338.788 418.785,338.773C419.473,338.765 420.156,338.898 420.791,339.164C421.426,339.43 421.999,339.823 422.476,340.32C422.953,340.817 423.323,341.406 423.563,342.051C423.803,342.696 423.908,343.384 423.872,344.071Z" fill="#263238"/>
<path d="M447.644,344.071C447.559,345.494 446.938,346.832 445.905,347.816C444.873,348.799 443.506,349.354 442.08,349.369C441.394,349.373 440.713,349.236 440.081,348.968C439.448,348.7 438.877,348.307 438.401,347.811C437.925,347.315 437.555,346.728 437.313,346.086C437.072,345.443 436.963,344.757 436.994,344.071C437.079,342.648 437.7,341.31 438.732,340.327C439.765,339.343 441.132,338.788 442.557,338.773C443.245,338.767 443.926,338.902 444.56,339.169C445.194,339.436 445.766,339.829 446.243,340.326C446.719,340.822 447.089,341.41 447.33,342.054C447.571,342.698 447.677,343.384 447.644,344.071Z" fill="#263238"/>
<path d="M471.557,344.071C471.472,345.494 470.851,346.832 469.819,347.816C468.786,348.799 467.419,349.354 465.994,349.369C465.306,349.378 464.623,349.245 463.988,348.978C463.353,348.712 462.779,348.319 462.303,347.822C461.826,347.326 461.456,346.736 461.216,346.091C460.976,345.446 460.871,344.758 460.907,344.071C460.988,342.646 461.608,341.306 462.641,340.322C463.675,339.338 465.044,338.784 466.471,338.773C467.158,338.767 467.84,338.902 468.474,339.169C469.107,339.436 469.68,339.829 470.156,340.326C470.632,340.822 471.002,341.41 471.243,342.054C471.484,342.698 471.591,343.384 471.557,344.071Z" fill="#263238"/>
<path d="M455.434,133.342C465.773,133.342 474.155,125.332 474.155,115.451C474.155,105.57 465.773,97.56 455.434,97.56C445.095,97.56 436.713,105.57 436.713,115.451C436.713,125.332 445.095,133.342 455.434,133.342Z" transform="rotate(-88.72 455.434 115.451)" fill="#007AFF"/>
<path d="M490.172,157.179C485.772,162.944 480.109,167.624 473.618,170.86C467.128,174.096 459.982,175.802 452.73,175.847C445.697,175.907 438.758,174.235 432.524,170.979C426.29,167.724 420.953,162.984 416.984,157.179C425.567,148.631 439.149,143.05 454.196,143.05C469.243,143.05 482.348,148.631 490.172,157.179Z" fill="#007AFF"/>
<g opacity="0.1">
<path d="M455.434,133.342C465.773,133.342 474.155,125.332 474.155,115.451C474.155,105.57 465.773,97.56 455.434,97.56C445.095,97.56 436.713,105.57 436.713,115.451C436.713,125.332 445.095,133.342 455.434,133.342Z" transform="rotate(-88.72 455.434 115.451)" fill="#FFFFFF"/>
</g>
<g opacity="0.1">
<path d="M490.172,157.179C485.772,162.944 480.109,167.624 473.618,170.86C467.128,174.096 459.982,175.802 452.73,175.847C445.697,175.907 438.758,174.235 432.524,170.979C426.29,167.724 420.953,162.984 416.984,157.179C425.567,148.631 439.149,143.05 454.196,143.05C469.243,143.05 482.348,148.631 490.172,157.179Z" fill="#FFFFFF"/>
</g>
<path d="M230.321,279.06C228.643,282.733 226.877,286.778 225.341,290.698C223.804,294.619 222.232,298.664 220.872,302.69C218.096,310.626 215.981,318.778 214.55,327.063L214.161,329.659C214.124,330.105 214.166,330.553 214.285,330.984C214.702,332.448 215.358,333.832 216.228,335.081C218.496,338.315 221.127,341.278 224.069,343.912C227.171,346.798 230.426,349.515 233.818,352.054C237.209,354.668 240.777,357.211 244.291,359.613L240.989,365.812C232.596,362.155 224.631,357.589 217.234,352.195C213.288,349.317 209.727,345.946 206.637,342.163C204.806,339.912 203.378,337.36 202.416,334.622C201.857,332.911 201.571,331.123 201.569,329.324C201.569,328.9 201.569,328.282 201.569,327.981L201.569,327.116L201.745,325.35C202.758,316.148 204.693,307.072 207.52,298.257C208.898,293.913 210.364,289.586 212.042,285.365C213.72,281.144 215.45,277.011 217.587,272.719L230.321,279.06Z" fill="#E58A7B"/>
<path d="M241.801,358.518L254.288,352.195L251.056,365.9C251.056,365.9 242.49,368.302 238.516,364.134L241.801,358.518Z" fill="#E58A7B"/>
<path d="M265.714,354.438L262.394,365.777L251.056,365.9L254.288,352.195L265.714,354.438Z" fill="#E58A7B"/>
<path d="M283.34,212.936C284.008,215.383 284.938,217.752 286.113,220C285.77,220.39 285.328,220.679 284.833,220.838C284.339,220.996 283.811,221.018 283.305,220.901L283.34,212.936Z" fill="#DF5753"/>
<path d="M282.97,213.042C283.701,213.042 284.294,212.132 284.294,211.011C284.294,209.889 283.701,208.979 282.97,208.979C282.238,208.979 281.645,209.889 281.645,211.011C281.645,212.132 282.238,213.042 282.97,213.042Z" fill="#263238"/>
<path d="M282.581,209.05L285.266,208.291C285.266,208.291 283.959,210.375 282.581,209.05Z" fill="#263238"/>
<path d="M248.848,225.899C250.455,234.112 252.062,249.177 246.305,254.669C246.305,254.669 248.565,263.006 263.842,263.006C280.638,263.006 271.86,254.669 271.86,254.669C262.694,252.479 262.924,245.68 264.531,239.286L248.848,225.899Z" fill="#E58A7B"/>
<path d="M244.38,207.178C245.227,220.901 245.298,226.729 252.221,233.776C262.659,244.373 279.331,240.346 282.599,226.712C285.548,214.349 283.676,194.003 270.236,188.546C267.286,187.33 264.074,186.888 260.905,187.259C257.736,187.631 254.714,188.806 252.126,190.671C249.537,192.536 247.467,195.031 246.112,197.92C244.756,200.808 244.16,203.995 244.38,207.178Z" fill="#E58A7B"/>
<path d="M245.74,191.742C238.852,194.25 229.668,192.378 233.271,213.624C237.085,236.125 231.222,243.525 231.222,243.525C231.222,243.525 257.343,249.088 284.012,243.19C284.012,243.19 275.87,228.955 278.148,218.464C281.062,205.218 278.766,200.326 278.766,200.326C278.766,200.326 255.418,188.21 245.74,191.742Z" fill="#263238"/>
<path d="M274.881,214.331C274.888,216.94 275.635,219.494 277.035,221.696C278.908,224.557 281.115,223.462 281.663,220.424C282.157,217.757 281.786,213.042 279.402,211.205C277.018,209.368 274.916,211.17 274.881,214.331Z" fill="#E58A7B"/>
<path d="M239.752,194.056C237.774,188.492 247.205,179.927 267.163,183.459C287.12,186.991 287.985,203.611 287.985,203.611L283.959,198.807L284.135,203.858L263.63,207.796L239.752,194.056Z" fill="#263238"/>
<path d="M241.448,255.606C241.33,254.799 241.532,253.979 242.01,253.319C242.489,252.659 243.206,252.212 244.009,252.073C250.226,251.049 264.355,248.965 271.454,249.954C276.753,250.696 278.13,253.769 278.36,256.294C278.396,256.737 278.337,257.181 278.187,257.599C278.036,258.016 277.798,258.397 277.489,258.715C277.179,259.033 276.805,259.28 276.392,259.442C275.979,259.603 275.536,259.674 275.093,259.65L244.397,258.272C243.674,258.236 242.985,257.95 242.447,257.464C241.91,256.979 241.557,256.322 241.448,255.606Z" fill="#007AFF"/>
<g opacity="0.6">
<path d="M241.448,255.606C241.33,254.799 241.532,253.979 242.01,253.319C242.489,252.659 243.206,252.212 244.009,252.073C250.226,251.049 264.355,248.965 271.454,249.954C276.753,250.696 278.13,253.769 278.36,256.294C278.396,256.737 278.337,257.181 278.187,257.599C278.036,258.016 277.798,258.397 277.489,258.715C277.179,259.033 276.805,259.28 276.392,259.442C275.979,259.603 275.536,259.674 275.093,259.65L244.397,258.272C243.674,258.236 242.985,257.95 242.447,257.464C241.91,256.979 241.557,256.322 241.448,255.606Z" fill="#000000"/>
</g>
<path d="M259.198,564.149L270.589,572.061L289.646,546.222L278.254,538.328L259.198,564.149Z" fill="#E58A7B"/>
<path d="M232.635,563.636L244.662,570.489L261.529,543.167L249.501,536.314L232.635,563.636Z" fill="#E58A7B"/>
<path d="M289.628,546.222L279.808,559.539L268.417,551.645L278.236,538.328L289.628,546.222Z" fill="#CF6F64"/>
<path d="M249.484,536.314L261.529,543.185L252.839,557.261L240.794,550.391L249.484,536.314Z" fill="#CF6F64"/>
<path d="M268.805,341.863C268.805,341.863 313.276,397.903 304.923,451.505C298.194,494.793 259.162,553.411 259.162,553.411L240.812,544.297C253.746,518.38 264.784,491.558 273.839,464.044C276.631,455.502 277.446,446.437 276.222,437.534C274.998,428.631 271.768,420.122 266.774,412.65C244.238,379.747 208.139,399.333 232.423,341.863L268.805,341.863Z" fill="#007AFF"/>
<g opacity="0.6">
<path d="M268.805,341.863C268.805,341.863 313.276,397.903 304.923,451.505C298.194,494.793 259.162,553.411 259.162,553.411L240.812,544.297C253.746,518.38 264.784,491.558 273.839,464.044C276.631,455.502 277.446,446.437 276.222,437.534C274.998,428.631 271.768,420.122 266.774,412.65C244.238,379.747 208.139,399.333 232.423,341.863L268.805,341.863Z" fill="#000000"/>
</g>
<g opacity="0.4">
<path d="M290.617,377.857L284.153,371.428C284.153,371.941 296.675,449.244 300.189,470.968C302.263,464.622 303.852,458.127 304.94,451.54C309.073,425.242 300.437,398.38 290.617,377.857Z" fill="#000000"/>
</g>
<path d="M288.657,341.863C288.657,341.863 342.206,412.297 343.724,454.525C344.978,489.847 285.442,558.285 285.442,558.285L268.134,547.087C268.134,547.087 302.98,498.484 311.758,458.781C308.367,419.432 236.662,341.863 236.662,341.863L288.657,341.863Z" fill="#007AFF"/>
<g opacity="0.6">
<path d="M288.657,341.863C288.657,341.863 342.206,412.297 343.724,454.525C344.978,489.847 285.442,558.285 285.442,558.285L268.134,547.087C268.134,547.087 302.98,498.484 311.758,458.781C308.367,419.432 236.662,341.863 236.662,341.863L288.657,341.863Z" fill="#000000"/>
</g>
<path d="M222.409,257.813C216.687,259.173 211.194,279.978 211.194,279.978L233.571,294.919C233.571,294.919 241.024,278.459 238.41,271.253C235.708,263.747 229.597,256.1 222.409,257.813Z" fill="#007AFF"/>
<g opacity="0.2">
<path d="M226.789,271.218L225.235,289.356L233.553,294.937C235.85,289.766 237.551,284.35 238.622,278.795L226.789,271.218Z" fill="#000000"/>
</g>
<path d="M295.28,258.219C295.28,258.219 301.885,260.533 288.657,341.846L232.388,341.846C233.341,318.886 233.359,304.757 222.409,257.813C230.288,256.189 238.274,255.139 246.305,254.669C254.812,254.059 263.353,254.059 271.861,254.669C282.846,255.676 295.28,258.219 295.28,258.219Z" fill="#007AFF"/>
<path d="M301.002,271.218C302.273,274.75 303.616,278.547 305.029,282.203C306.441,285.859 307.784,289.621 309.214,293.33L313.541,304.421L314.636,307.194L315.202,308.572L315.466,309.26C315.466,309.384 315.466,309.384 315.466,309.366C315.144,308.912 314.721,308.537 314.23,308.271C313.531,307.86 312.744,307.624 311.934,307.583C311.262,307.562 310.592,307.688 309.974,307.954C309.161,308.324 309.161,308.483 309.179,308.466C309.326,308.348 309.457,308.211 309.568,308.06C310.545,306.776 311.391,305.397 312.093,303.944C312.923,302.32 313.718,300.589 314.513,298.84C316.067,295.308 317.498,291.652 318.928,287.961C320.359,284.27 321.719,280.543 323.043,276.781L327.07,265.513L333.87,267.28C332.527,275.333 330.796,283.175 328.712,291.158C327.706,295.131 326.522,299.07 325.18,303.044C324.509,305.039 323.767,307.017 322.92,309.049C322.036,311.253 320.948,313.37 319.67,315.371C319.2,316.045 318.681,316.683 318.116,317.279C317.214,318.253 316.119,319.029 314.901,319.557C313.821,320.021 312.65,320.238 311.475,320.193C310.159,320.144 308.876,319.761 307.748,319.08C306.418,318.25 305.314,317.103 304.534,315.742C304.269,315.283 304.04,314.824 303.881,314.488L303.545,313.817L302.874,312.439L301.532,309.702C299.765,306.028 297.999,302.32 296.463,298.593C294.926,294.866 293.301,291.087 291.783,287.29C290.264,283.493 288.904,279.695 287.615,275.598L301.002,271.218Z" fill="#E58A7B"/>
<path d="M295.28,258.219C302.044,259.827 309.656,279.819 309.656,279.819L289.54,296.933C289.54,296.933 276.523,275.139 279.155,267.951C281.892,260.462 286.449,256.118 295.28,258.219Z" fill="#007AFF"/>
<path d="M330.267,259.191L337.331,253.292L342.241,260.939L338.62,267.315C338.62,267.315 332.863,272.613 327.776,269.911C326.969,268.096 326.775,266.068 327.225,264.133C327.674,262.199 328.742,260.464 330.267,259.191Z" fill="#E58A7B"/>
<path d="M350.083,253.309L349.553,255.234L338.373,257.107L337.278,253.292L350.083,253.309Z" fill="#E58A7B"/>
<path d="M286.82,559.186L266.651,546.152L270.271,539.864L292.931,553.799L286.82,559.186Z" fill="#007AFF"/>
<path d="M252.557,569.571C250.787,569.354 249.087,568.752 247.576,567.805C247.514,567.783 247.46,567.742 247.422,567.689C247.383,567.635 247.363,567.57 247.363,567.504C247.363,567.438 247.383,567.374 247.422,567.32C247.46,567.266 247.514,567.226 247.576,567.204C248.124,567.027 252.875,565.562 254.252,566.692C254.407,566.821 254.525,566.988 254.593,567.178C254.661,567.367 254.678,567.571 254.641,567.769C254.616,568.087 254.511,568.394 254.335,568.659C254.159,568.925 253.917,569.142 253.634,569.288C253.303,569.469 252.934,569.566 252.557,569.571ZM248.583,567.628C250.791,568.758 252.557,569.164 253.405,568.741C253.589,568.638 253.744,568.491 253.856,568.311C253.967,568.132 254.031,567.927 254.04,567.716C254.04,567.434 254.04,567.31 253.881,567.239C253.14,566.639 250.49,567.098 248.548,567.628L248.583,567.628Z" fill="#263238"/>
<path d="M247.7,567.928C247.607,567.927 247.518,567.889 247.453,567.822C247.426,567.773 247.413,567.719 247.413,567.663C247.413,567.608 247.426,567.553 247.453,567.504C247.453,567.345 248.601,563.513 250.402,562.648C250.632,562.543 250.882,562.488 251.135,562.488C251.388,562.488 251.638,562.543 251.868,562.648C252.116,562.726 252.331,562.885 252.478,563.099C252.625,563.314 252.696,563.571 252.68,563.831C252.557,565.42 249.325,567.61 247.841,567.981L247.7,567.928ZM251.126,563.107C250.954,563.112 250.786,563.154 250.632,563.23C249.537,563.76 248.636,565.827 248.194,567.081C249.749,566.427 251.886,564.696 251.956,563.725C251.956,563.566 251.956,563.372 251.55,563.195C251.418,563.124 251.275,563.076 251.126,563.054L251.126,563.107Z" fill="#263238"/>
<path d="M277.759,577.2C275.764,577.2 272.991,574.639 271.472,573.068C271.433,573.013 271.412,572.949 271.412,572.882C271.412,572.816 271.433,572.751 271.472,572.697C271.507,572.64 271.556,572.593 271.616,572.562C271.675,572.531 271.741,572.517 271.808,572.52C272.514,572.52 278.643,573.438 279.508,575.169C279.6,575.324 279.648,575.501 279.648,575.681C279.648,575.862 279.6,576.038 279.508,576.194C279.378,576.463 279.182,576.695 278.938,576.868C278.694,577.041 278.41,577.149 278.113,577.183L277.759,577.2ZM272.638,573.315C274.863,575.469 276.823,576.67 277.936,576.529C278.131,576.504 278.317,576.431 278.477,576.317C278.637,576.203 278.767,576.051 278.854,575.876C278.894,575.815 278.915,575.745 278.915,575.673C278.915,575.6 278.894,575.53 278.854,575.469C278.395,574.516 275.128,573.703 272.638,573.315Z" fill="#263238"/>
<path d="M272.832,573.227C272.436,573.238 272.039,573.208 271.649,573.138C271.594,573.13 271.543,573.108 271.499,573.074C271.456,573.04 271.422,572.995 271.401,572.944C271.375,572.892 271.361,572.834 271.361,572.776C271.361,572.718 271.375,572.66 271.401,572.608C271.507,572.485 273.892,569.606 276.152,569.412C276.792,569.362 277.426,569.565 277.918,569.977C278.607,570.577 278.572,571.107 278.395,571.443C277.954,572.644 274.898,573.227 272.832,573.227ZM272.373,572.573C274.351,572.679 277.512,572.026 277.918,571.16C277.918,571.16 278.06,570.878 277.601,570.489C277.418,570.33 277.204,570.211 276.973,570.138C276.743,570.065 276.499,570.04 276.258,570.065C274.735,570.49 273.379,571.372 272.373,572.591L272.373,572.573Z" fill="#263238"/>
<path d="M248.177,566.021L233.2,561.782C232.942,561.704 232.664,561.724 232.42,561.838C232.175,561.952 231.981,562.152 231.875,562.4L226.824,573.757C226.706,574.047 226.65,574.36 226.661,574.674C226.672,574.988 226.749,575.296 226.887,575.578C227.026,575.86 227.222,576.109 227.464,576.31C227.706,576.51 227.988,576.657 228.29,576.741C233.589,578.119 236.132,578.507 242.719,580.397C246.782,581.527 252.575,583.629 258.173,585.219C263.772,586.808 265.644,581.351 263.472,580.185C253.652,574.993 252.875,571.355 250.19,567.469C249.709,566.765 248.997,566.253 248.177,566.021Z" fill="#007AFF"/>
<path d="M271.878,571.001L259.091,562.171C258.875,562.013 258.607,561.94 258.341,561.966C258.074,561.992 257.825,562.115 257.643,562.312L249.166,571.425C248.959,571.661 248.805,571.937 248.714,572.237C248.622,572.537 248.596,572.853 248.636,573.163C248.676,573.474 248.782,573.773 248.946,574.039C249.111,574.306 249.33,574.535 249.59,574.71C254.093,577.73 256.425,578.949 262.059,582.852C265.591,585.254 272.426,590.588 277.194,593.908C281.963,597.228 285.513,592.672 283.817,590.87C276.223,582.764 274.563,577.677 273.309,573.068C273.091,572.231 272.584,571.499 271.878,571.001Z" fill="#007AFF"/>
<path d="M261.511,554.576L238.463,543.114L240.847,536.862L265.467,548.942L261.511,554.576Z" fill="#007AFF"/>
<path d="M231.54,338.543L229.597,343.63C229.403,344.018 229.862,344.424 230.515,344.424L288.939,344.424C289.451,344.424 289.875,344.177 289.911,343.859L290.405,338.808C290.405,338.472 289.999,338.172 289.451,338.172L232.458,338.172C232.287,338.156 232.114,338.181 231.954,338.246C231.794,338.31 231.652,338.412 231.54,338.543Z" fill="#007AFF"/>
<g opacity="0.4">
<path d="M231.54,338.543L229.597,343.63C229.403,344.018 229.862,344.424 230.515,344.424L288.939,344.424C289.451,344.424 289.875,344.177 289.911,343.859L290.405,338.808C290.405,338.472 289.999,338.172 289.451,338.172L232.458,338.172C232.287,338.156 232.114,338.181 231.954,338.246C231.794,338.31 231.652,338.412 231.54,338.543Z" fill="#FFFFFF"/>
</g>
<path d="M240.741,344.919L239.205,344.919C238.905,344.919 238.675,344.76 238.693,344.566L239.417,338.013C239.417,337.837 239.699,337.678 240,337.678L241.536,337.678C241.836,337.678 242.066,337.837 242.048,338.013L241.324,344.566C241.307,344.76 241.042,344.919 240.741,344.919Z" fill="#007AFF"/>
<path d="M276.771,344.919L275.252,344.919C274.951,344.919 274.722,344.76 274.739,344.566L275.446,338.013C275.446,337.837 275.746,337.678 276.046,337.678L277.565,337.678C277.866,337.678 278.113,337.837 278.077,338.013L277.371,344.566C277.283,344.76 277.088,344.919 276.771,344.919Z" fill="#007AFF"/>
<g style="mix-blend-mode:multiply">
<path d="M239.399,644.013C265.53,644.013 286.714,642.479 286.714,640.587C286.714,638.695 265.53,637.161 239.399,637.161C213.268,637.161 192.084,638.695 192.084,640.587C192.084,642.479 213.268,644.013 239.399,644.013Z" fill="#F5F5F5"/>
</g>
<path d="M268.222,635.747C259.851,633.311 250.561,630.185 244.945,626.917C244.786,626.811 244.609,626.759 244.45,626.669L244.45,588.768L261.388,588.768C262.673,588.692 263.881,588.128 264.765,587.191C265.648,586.253 266.14,585.014 266.14,583.726C266.14,582.438 265.648,581.199 264.765,580.262C263.881,579.324 262.673,578.76 261.388,578.684L244.539,578.684L244.539,405.921L234.366,405.921L234.366,578.684L217.534,578.684C216.847,578.643 216.159,578.743 215.512,578.978C214.865,579.213 214.272,579.578 213.771,580.05C213.27,580.523 212.871,581.092 212.598,581.724C212.325,582.356 212.185,583.038 212.185,583.726C212.185,584.415 212.325,585.096 212.598,585.728C212.871,586.36 213.27,586.93 213.771,587.402C214.272,587.874 214.865,588.239 215.512,588.474C216.159,588.709 216.847,588.809 217.534,588.768L234.366,588.768L234.366,626.617C234.207,626.617 234.048,626.759 233.889,626.865C228.184,630.185 218.965,633.311 210.594,635.695C210.028,635.865 209.542,636.233 209.225,636.731C208.907,637.229 208.778,637.825 208.861,638.409C208.944,638.995 209.234,639.531 209.679,639.921C210.123,640.309 210.692,640.527 211.282,640.533L267.534,640.533C268.098,640.495 268.632,640.265 269.047,639.879C269.462,639.495 269.732,638.979 269.813,638.419C269.894,637.859 269.78,637.289 269.49,636.803C269.201,636.317 268.753,635.943 268.222,635.747Z" fill="#E0E0E0"/>
<path d="M270.819,388.33L208.015,388.33C202.962,388.33 198.866,392.426 198.866,397.479L198.866,416.147C198.866,421.2 202.962,425.296 208.015,425.296L270.819,425.296C275.871,425.296 279.967,421.2 279.967,416.147L279.967,397.479C279.967,392.426 275.871,388.33 270.819,388.33Z" fill="#007AFF"/>
<path d="M207.432,425.313L207.432,428.527C207.432,431.177 210.311,433.331 213.843,433.331L265.061,433.331C268.593,433.331 271.472,431.177 271.472,428.527L271.472,425.313L207.432,425.313Z" fill="#007AFF"/>
<g opacity="0.3">
<path d="M207.432,425.313L207.432,428.527C207.432,431.177 210.311,433.331 213.843,433.331L265.061,433.331C268.593,433.331 271.472,431.177 271.472,428.527L271.472,425.313L207.432,425.313Z" fill="#FFFFFF"/>
</g>
</svg>
