<svg width="172" height="208" viewBox="0 0 172 208" fill="none" xmlns="http://www.w3.org/2000/svg" xmlns:xlink="http://www.w3.org/1999/xlink">
<path d="M120.907,43.58L110.261,47.383L105.693,33.472C97.301,7.82 70.553,-5.802 45.976,2.859C21.399,11.52 8.314,39.652 16.706,65.304L21.275,79.216L10.588,83.04C6.513,84.62 3.204,87.71 1.348,91.668C-0.507,95.625 -0.766,100.146 0.625,104.289L30.246,194.805C30.861,196.856 31.881,198.763 33.248,200.411C34.614,202.061 36.298,203.419 38.199,204.403C40.1,205.389 42.18,205.981 44.315,206.147C46.45,206.313 48.596,206.047 50.627,205.367L160.945,165.908C165.074,164.33 168.43,161.213 170.308,157.211C172.185,153.209 172.438,148.636 171.012,144.452L141.37,53.936C140.74,51.89 139.703,49.993 138.323,48.357C136.943,46.721 135.247,45.379 133.337,44.413C131.428,43.446 129.342,42.874 127.207,42.731C125.071,42.588 122.928,42.877 120.907,43.58ZM36.819,58.049C34.556,51.379 34.962,44.092 37.952,37.715C40.942,31.338 46.285,26.366 52.859,23.839C56.106,22.729 59.543,22.283 62.965,22.53C66.388,22.776 69.725,23.71 72.779,25.274C75.833,26.839 78.54,29.002 80.74,31.636C82.939,34.27 84.586,37.319 85.581,40.603L90.128,54.514L41.366,71.96L36.819,58.049ZM98.83,138.375L106.396,161.484C106.535,161.948 106.49,162.447 106.271,162.878C106.051,163.309 105.674,163.639 105.218,163.799L94.614,167.582C94.192,167.699 93.741,167.648 93.355,167.44C92.97,167.232 92.68,166.883 92.547,166.466L84.919,143.46C80.713,143.231 76.678,141.722 73.353,139.136C70.029,136.55 67.573,133.01 66.316,128.99C64.518,123.676 64.846,117.872 67.231,112.794C69.616,107.715 73.873,103.757 79.111,101.747C81.697,100.863 84.435,100.509 87.16,100.706C89.886,100.903 92.545,101.646 94.977,102.893C97.409,104.139 99.566,105.862 101.318,107.959C103.07,110.056 104.383,112.485 105.176,115.1C106.506,119.183 106.616,123.566 105.493,127.711C104.369,131.856 102.061,135.584 98.851,138.437L98.83,138.375Z" fill="#007AFF"/>
<path d="M109.786,47.135C109.786,47.424 90.046,54.845 65.489,63.671C40.932,72.498 20.903,79.588 20.799,79.381C20.696,79.174 40.54,71.692 65.117,62.845C89.694,53.998 109.683,46.866 109.786,47.135Z" fill="#263238"/>
<path d="M133.226,50.938C133.317,51.118 133.393,51.305 133.454,51.497C133.619,51.91 133.805,52.447 134.053,53.109C134.59,54.618 135.335,56.706 136.265,59.31L144.202,82.42C147.509,92.217 151.458,103.834 155.84,116.733C157.907,123.203 160.346,129.941 162.62,137.031C163.837,140.685 164.362,144.533 164.17,148.379C163.995,150.38 163.426,152.325 162.496,154.105C161.502,155.879 160.176,157.444 158.589,158.715C155.395,161.046 151.851,162.853 148.088,164.068L137.443,167.892L117.289,175.106L83.162,187.261L60.115,195.363L53.913,197.43L52.26,197.968C52.083,198.046 51.894,198.095 51.702,198.113C51.702,198.113 51.867,198.113 52.218,197.865L53.831,197.224L60.032,194.888L82.955,186.454L117.02,174.052L137.133,166.776L147.778,162.931C151.434,161.765 154.875,160.013 157.969,157.743C159.445,156.564 160.68,155.111 161.607,153.464C162.482,151.818 163.01,150.01 163.157,148.152C163.347,144.446 162.843,140.737 161.669,137.217C159.436,130.189 157.08,123.389 154.951,116.919C150.651,104 146.683,92.341 143.541,82.544C140.399,72.746 137.753,64.87 135.934,59.331C135.066,56.623 134.404,54.514 133.867,52.985L133.371,51.331C133.308,51.206 133.26,51.074 133.226,50.938Z" fill="#263238"/>
<path d="M75.018,22.434C75.018,22.434 73.923,21.896 71.897,21.069C69.009,19.96 65.956,19.345 62.864,19.25C58.281,19.093 53.72,19.955 49.511,21.772C44.391,24.036 40.014,27.697 36.881,32.335C33.727,36.96 32.035,42.426 32.023,48.024C32.066,52.612 32.762,57.171 34.09,61.563C35.165,65.325 36.281,68.322 37.026,70.41C37.465,71.47 37.824,72.562 38.1,73.676C37.513,72.684 37.022,71.639 36.633,70.555C35.785,68.488 34.566,65.552 33.367,61.77C31.895,57.331 31.094,52.698 30.99,48.024C30.935,42.214 32.667,36.528 35.951,31.735C39.193,26.928 43.749,23.154 49.077,20.863C53.418,19.035 58.121,18.229 62.822,18.506C65.981,18.667 69.084,19.403 71.98,20.677C72.754,21.034 73.5,21.448 74.212,21.917C74.506,22.046 74.778,22.22 75.018,22.434Z" fill="#263238"/>
<path d="M75.969,103.318C76.299,103.118 76.644,102.945 77.002,102.801C78.037,102.334 79.109,101.954 80.206,101.664C81.948,101.15 83.746,100.844 85.56,100.754C88.028,100.622 90.497,100.995 92.815,101.85C98.107,103.71 102.965,109.105 105.362,116.319C106.512,120.191 106.512,124.313 105.362,128.184C104.087,132.386 101.802,136.211 98.706,139.326L98.83,138.767C101.58,146.312 104.577,154.498 107.677,163.035L107.863,163.551L107.347,163.737L102.613,165.308L92.278,168.76L91.761,168.926L91.596,168.409C88.764,159.851 85.663,151.873 83.327,144.038L83.782,144.39C79.741,144.054 75.888,142.537 72.703,140.028C69.821,137.809 67.458,134.987 65.778,131.76C64.263,128.899 63.508,125.696 63.587,122.458C63.683,119.15 64.509,115.904 66.006,112.952C67.504,110 69.635,107.416 72.248,105.385C73.324,104.511 74.531,103.814 75.824,103.318C74.656,104.01 73.525,104.762 72.434,105.571C69.564,107.999 67.365,111.124 66.047,114.645C64.916,117.3 64.387,120.173 64.498,123.057C64.609,125.941 65.356,128.765 66.688,131.326C68.339,134.43 70.645,137.139 73.447,139.264C76.486,141.648 80.159,143.086 84.01,143.398L84.361,143.398L84.464,143.708C86.738,151.397 89.859,159.438 92.733,168.037L92.05,167.706L102.386,164.254L107.099,162.663L106.768,163.365C103.688,154.828 100.711,146.622 97.983,139.078L97.983,138.767L98.231,138.519C101.236,135.534 103.477,131.868 104.763,127.833C105.859,124.129 105.859,120.188 104.763,116.485C102.51,109.539 97.859,104.268 92.815,102.408C90.583,101.547 88.199,101.146 85.808,101.23C84.023,101.271 82.247,101.513 80.516,101.953C77.436,102.718 75.989,103.421 75.969,103.318Z" fill="#263238"/>
</svg>
