<svg width="172" height="296" viewBox="0 0 172 296" fill="none" xmlns="http://www.w3.org/2000/svg" xmlns:xlink="http://www.w3.org/1999/xlink">
<path d="M37.815,219.813C5.88,197.509 -1.355,156.106 -0.094,118.879C0.113,112.678 -0.57,106.104 2.386,100.668C5.342,95.232 12.246,91.49 17.807,94.095C22.416,96.265 24.421,101.64 27.005,106.084C30.452,112.003 35.505,116.826 41.578,119.995C45.526,122.062 50.425,123.302 54.331,121.153C59.706,118.197 60.326,110.817 60.284,104.616C60.284,93.082 60.215,81.562 60.078,70.055C59.706,63.876 60.334,57.678 61.938,51.7C63.86,45.829 68.139,40.393 73.989,38.739C79.839,37.086 87.135,40.496 88.458,46.532C88.686,49.088 88.748,51.657 88.644,54.221C88.81,56.805 90.009,59.637 92.427,60.423C94.846,61.208 97.367,59.41 99.228,57.591C105.594,51.39 109.935,43.307 113.966,35.329C117.996,27.35 121.945,19.143 127.732,12.343C133.52,5.542 141.52,0.147 150.47,-0.37C159.42,-0.886 168.743,4.612 170.975,13.294C173.207,21.975 168.143,30.843 162.707,37.892C154.503,48.354 144.833,57.579 133.995,65.28C131.88,66.435 130.192,68.24 129.179,70.427C127.836,74.561 131.742,78.695 135.814,79.998C140.424,81.527 145.426,81.052 150.284,81.63C155.141,82.209 160.309,84.318 162.149,88.865C164.671,95.19 159.379,101.805 154.191,106.146C143.773,114.827 131.943,121.658 119.216,126.341C114.669,127.994 109.894,129.462 106.214,132.645C102.535,135.829 100.344,141.389 102.556,145.751C104.767,150.112 110.452,151.497 115.227,150.608C120.002,149.719 124.239,147.156 128.787,145.44C137.282,142.237 148.237,142.815 153.591,150.153C155.25,152.681 156.3,155.559 156.658,158.561C157.017,161.563 156.675,164.607 155.658,167.455C153.589,173.121 150.405,178.315 146.294,182.73C132.756,198.905 115.166,211.195 95.321,218.345C75.622,225.167 57.37,227.027 37.795,219.855Z" fill="#007AFF"/>
<path d="M161.88,4.736C161.88,4.736 161.694,4.943 161.281,5.315L159.441,6.948C157.829,8.395 155.452,10.503 152.454,13.294C143.957,21.184 136.066,29.704 128.849,38.78C124.239,44.506 119.464,50.997 114.379,58.045C109.294,65.094 104.044,72.701 98.835,80.783C93.282,89.306 88.196,98.124 83.601,107.2C81.203,111.933 79.095,116.874 76.924,121.917L70.516,137.317C62.07,156.714 54.714,176.568 48.482,196.786C43.462,213.328 40.002,230.304 38.146,247.49C36.944,259.09 36.751,270.77 37.568,282.404C37.898,286.538 38.208,289.7 38.498,291.85C38.622,292.884 38.705,293.71 38.787,294.31L38.787,295.156C38.698,294.888 38.636,294.612 38.601,294.33C38.498,293.73 38.374,292.924 38.208,291.89C37.836,289.824 37.444,286.558 37.072,282.424C36.074,270.77 36.144,259.05 37.278,247.408C39.018,230.148 42.403,213.092 47.386,196.476C53.566,176.201 60.902,156.297 69.359,136.862L75.932,121.524C78.103,116.502 80.232,111.52 82.65,106.766C87.277,97.663 92.404,88.823 98.008,80.287C103.3,72.019 108.633,64.536 113.656,57.549C118.679,50.563 123.536,44.031 128.125,38.326C135.415,29.273 143.412,20.813 152.041,13.025C155.1,10.276 157.539,8.209 159.193,6.824L161.115,5.274C161.351,5.068 161.607,4.888 161.88,4.736Z" fill="#263238"/>
<path d="M82.919,106.725C82.627,105.873 82.426,104.993 82.319,104.099C81.988,102.384 81.616,99.965 81.182,96.823C80.293,90.622 79.384,82.127 78.412,72.722C77.441,63.316 76.345,54.8 75.436,48.661C74.96,45.602 74.547,43.142 74.258,41.426C74.032,40.548 73.914,39.646 73.906,38.739C74.262,39.567 74.519,40.435 74.671,41.323C75.126,43.018 75.643,45.457 76.221,48.537C77.4,54.738 78.557,63.172 79.529,72.598C80.5,82.023 81.327,90.292 81.968,96.72C82.278,99.614 82.547,102.074 82.753,104.037C82.914,104.924 82.969,105.825 82.919,106.725Z" fill="#263238"/>
<path d="M162.459,91.883C161.453,92.102 160.429,92.227 159.4,92.255C157.332,92.441 154.397,92.689 150.759,93.103C143.483,93.888 133.479,95.335 122.503,97.402C111.527,99.469 101.667,101.805 94.577,103.603C91.042,104.513 88.19,105.34 86.309,105.898C85.304,106.255 84.265,106.504 83.208,106.642C84.163,106.161 85.159,105.767 86.185,105.464C88.128,104.781 90.939,103.831 94.453,102.818C101.501,100.751 111.361,98.291 122.379,96.182C131.711,94.398 141.129,93.087 150.594,92.255C154.253,91.945 157.208,91.821 159.276,91.78C160.337,91.707 161.404,91.742 162.459,91.883Z" fill="#263238"/>
<path d="M48.399,195.029C48.178,194.73 47.998,194.403 47.861,194.057L46.497,191.184C45.319,188.683 43.727,184.983 41.826,180.456C37.981,171.361 33.082,158.628 27.873,144.489C22.664,130.351 17.868,117.618 14.23,108.419C12.453,103.955 10.985,100.296 9.89,97.567L8.732,94.612C8.572,94.271 8.46,93.909 8.401,93.537C8.622,93.836 8.802,94.162 8.939,94.508L10.303,97.381C11.461,99.883 13.073,103.583 14.975,108.109C18.819,117.204 23.718,129.937 28.927,144.076C34.136,158.215 38.932,170.948 42.57,180.146C44.347,184.611 45.815,188.27 46.89,190.998C47.365,192.176 47.758,193.065 48.068,193.954C48.229,194.295 48.34,194.657 48.399,195.029Z" fill="#263238"/>
<path d="M153.984,160.985C153.653,161.175 153.299,161.321 152.93,161.419L149.871,162.452L138.564,166.111C129.014,169.212 115.826,173.635 101.357,178.513C86.887,183.391 73.638,187.732 64.026,190.626C59.23,192.094 55.323,193.21 52.616,193.954L49.494,194.76C49.131,194.876 48.757,194.952 48.378,194.988C48.709,194.798 49.064,194.652 49.432,194.554L52.492,193.52L63.798,189.861C73.348,186.761 86.536,182.337 101.005,177.459C115.475,172.581 128.704,168.24 138.316,165.346C143.132,163.878 147.018,162.762 149.746,162.018L152.868,161.212C153.231,161.097 153.605,161.02 153.984,160.985Z" fill="#263238"/>
</svg>
