<svg width="48" height="48" viewBox="0 0 48 48" fill="none" xmlns="http://www.w3.org/2000/svg" xmlns:xlink="http://www.w3.org/1999/xlink">
<path d="M40.5,23C40.5,32.665 32.665,40.5 23,40.5L23,43.5C34.322,43.5 43.5,34.322 43.5,23L40.5,23ZM23,40.5C13.335,40.5 5.5,32.665 5.5,23L2.5,23C2.5,34.322 11.678,43.5 23,43.5L23,40.5ZM5.5,23C5.5,13.335 13.335,5.5 23,5.5L23,2.5C11.678,2.5 2.5,11.678 2.5,23L5.5,23ZM23,5.5C32.665,5.5 40.5,13.335 40.5,23L43.5,23C43.5,11.678 34.322,2.5 23,2.5L23,5.5Z" fill="#ADA7A7"/>
<path d="M42.939,45.061C43.525,45.646 44.475,45.646 45.061,45.061C45.646,44.475 45.646,43.525 45.061,42.939L42.939,45.061ZM41.061,38.939C40.475,38.354 39.525,38.354 38.939,38.939C38.354,39.525 38.354,40.475 38.939,41.061L41.061,38.939ZM45.061,42.939L41.061,38.939L38.939,41.061L42.939,45.061L45.061,42.939Z" fill="#ADA7A7"/>
</svg>
