<svg width="64" height="64" viewBox="0 0 64 64" fill="none" xmlns="http://www.w3.org/2000/svg" xmlns:xlink="http://www.w3.org/1999/xlink">
<g opacity="0.1">
<path d="M0,32C0,14.327 14.327,0 32,0C49.673,0 64,14.327 64,32C64,49.673 49.673,64 32,64C14.327,64 0,49.673 0,32Z" clip-rule="evenodd" fill-rule="evenodd" fill="#FFFFFF"/>
</g>
<path d="M45.336,20.999C46.804,21.402 47.961,22.59 48.353,24.098C49.067,26.831 49.067,32.533 49.067,32.533C49.067,32.533 49.067,38.236 48.353,40.969C47.961,42.477 46.804,43.665 45.336,44.068C42.674,44.8 32,44.8 32,44.8C32,44.8 21.326,44.8 18.664,44.068C17.196,43.665 16.039,42.477 15.646,40.969C14.933,38.236 14.933,32.533 14.933,32.533C14.933,32.533 14.933,26.831 15.646,24.098C16.039,22.59 17.196,21.402 18.664,20.999C21.326,20.267 32,20.267 32,20.267C32,20.267 42.674,20.267 45.336,20.999ZM28.8,27.733L28.8,38.4L37.333,33.067L28.8,27.733Z" clip-rule="evenodd" fill-rule="evenodd" fill="#FFFFFF"/>
</svg>
