<svg width="64" height="64" viewBox="0 0 64 64" fill="none" xmlns="http://www.w3.org/2000/svg" xmlns:xlink="http://www.w3.org/1999/xlink">
<g opacity="0.1">
<path d="M0,32C0,14.327 14.327,0 32,0C49.673,0 64,14.327 64,32C64,49.673 49.673,64 32,64C14.327,64 0,49.673 0,32Z" clip-rule="evenodd" fill-rule="evenodd" fill="#FFFFFF"/>
</g>
<path d="M31.042,26.01L31.109,27.117L29.99,26.982C25.916,26.462 22.357,24.699 19.335,21.739L17.858,20.27L17.477,21.355C16.671,23.773 17.186,26.326 18.865,28.044C19.76,28.993 19.559,29.128 18.015,28.564C17.477,28.383 17.007,28.247 16.962,28.315C16.806,28.473 17.343,30.529 17.768,31.343C18.35,32.473 19.537,33.58 20.835,34.235L21.932,34.755L20.633,34.778C19.38,34.778 19.335,34.8 19.469,35.275C19.917,36.744 21.685,38.303 23.655,38.981L25.043,39.455L23.834,40.179C22.044,41.218 19.939,41.806 17.835,41.851C16.828,41.873 16,41.964 16,42.032C16,42.258 18.731,43.523 20.32,44.02C25.088,45.489 30.751,44.856 35.003,42.348C38.025,40.563 41.047,37.015 42.457,33.58C43.218,31.75 43.979,28.405 43.979,26.801C43.979,25.761 44.046,25.626 45.3,24.383C46.038,23.66 46.732,22.869 46.867,22.643C47.09,22.214 47.068,22.214 45.927,22.598C44.024,23.276 43.755,23.185 44.695,22.168C45.389,21.445 46.218,20.135 46.218,19.751C46.218,19.683 45.882,19.796 45.501,19.999C45.098,20.225 44.203,20.564 43.532,20.767L42.323,21.152L41.226,20.406C40.622,19.999 39.771,19.547 39.323,19.412C38.182,19.095 36.436,19.14 35.406,19.502C32.608,20.519 30.84,23.14 31.042,26.01Z" clip-rule="evenodd" fill-rule="evenodd" fill="#FFFFFF"/>
</svg>
