<svg width="64" height="64" viewBox="0 0 64 64" fill="none" xmlns="http://www.w3.org/2000/svg" xmlns:xlink="http://www.w3.org/1999/xlink">
<g opacity="0.1">
<path d="M0,32C0,14.327 14.327,0 32,0C49.673,0 64,14.327 64,32C64,49.673 49.673,64 32,64C14.327,64 0,49.673 0,32Z" clip-rule="evenodd" fill-rule="evenodd" fill="#FFFFFF"/>
</g>
<path d="M32.002,14.933C27.367,14.933 26.785,14.954 24.964,15.036C23.147,15.12 21.907,15.407 20.822,15.829C19.7,16.265 18.747,16.848 17.799,17.797C16.849,18.746 16.266,19.698 15.829,20.82C15.406,21.906 15.118,23.146 15.036,24.963C14.955,26.783 14.933,27.365 14.933,32C14.933,36.635 14.954,37.215 15.036,39.036C15.12,40.853 15.408,42.093 15.829,43.178C16.266,44.3 16.849,45.253 17.798,46.201C18.746,47.151 19.698,47.735 20.82,48.171C21.906,48.593 23.146,48.881 24.963,48.964C26.783,49.047 27.365,49.067 31.999,49.067C36.635,49.067 37.215,49.047 39.035,48.964C40.852,48.881 42.094,48.593 43.18,48.171C44.302,47.735 45.253,47.151 46.201,46.201C47.15,45.253 47.733,44.3 48.171,43.178C48.59,42.093 48.878,40.852 48.964,39.036C49.045,37.216 49.067,36.635 49.067,32C49.067,27.365 49.045,26.783 48.964,24.963C48.878,23.146 48.59,21.906 48.171,20.821C47.733,19.698 47.15,18.746 46.201,17.797C45.252,16.848 44.302,16.265 43.179,15.829C42.091,15.407 40.85,15.12 39.033,15.036C37.212,14.954 36.633,14.933 31.996,14.933L32.002,14.933ZM30.471,18.009C30.925,18.008 31.432,18.009 32.002,18.009C36.558,18.009 37.099,18.025 38.898,18.107C40.562,18.183 41.465,18.461 42.067,18.695C42.863,19.004 43.431,19.374 44.028,19.971C44.625,20.569 44.995,21.137 45.305,21.934C45.539,22.535 45.817,23.438 45.893,25.102C45.975,26.901 45.992,27.442 45.992,31.996C45.992,36.551 45.975,37.091 45.893,38.891C45.817,40.555 45.539,41.458 45.305,42.059C44.996,42.855 44.625,43.422 44.028,44.019C43.431,44.617 42.864,44.986 42.067,45.296C41.466,45.53 40.562,45.808 38.898,45.884C37.099,45.966 36.558,45.983 32.002,45.983C27.444,45.983 26.904,45.966 25.105,45.884C23.441,45.807 22.538,45.529 21.936,45.295C21.14,44.986 20.571,44.616 19.973,44.019C19.376,43.421 19.006,42.854 18.696,42.057C18.463,41.456 18.184,40.553 18.108,38.889C18.027,37.09 18.01,36.55 18.01,31.992C18.01,27.434 18.027,26.897 18.108,25.098C18.185,23.434 18.463,22.531 18.696,21.929C19.005,21.132 19.376,20.564 19.973,19.966C20.571,19.369 21.14,18.999 21.936,18.689C22.538,18.454 23.441,18.177 25.105,18.101C26.68,18.03 27.29,18.008 30.471,18.005L30.471,18.009ZM41.112,20.843C39.981,20.843 39.064,21.759 39.064,22.89C39.064,24.021 39.981,24.938 41.112,24.938C42.242,24.938 43.16,24.021 43.16,22.89C43.16,21.759 42.242,20.843 41.112,20.843ZM32.002,23.236C27.161,23.236 23.237,27.16 23.237,32C23.237,36.84 27.161,40.763 32.002,40.763C36.842,40.763 40.765,36.84 40.765,32C40.765,27.16 36.842,23.236 32.002,23.236ZM32.002,26.311C35.143,26.311 37.691,28.858 37.691,32C37.691,35.142 35.143,37.689 32.002,37.689C28.86,37.689 26.313,35.142 26.313,32C26.313,28.858 28.86,26.311 32.002,26.311Z" clip-rule="evenodd" fill-rule="evenodd" fill="#FFFFFF"/>
</svg>
