<svg width="300" height="610" viewBox="0 0 300 610" fill="none" xmlns="http://www.w3.org/2000/svg" xmlns:xlink="http://www.w3.org/1999/xlink">
<path d="M252.076,608.158L45.598,607.208C33.674,607.142 22.264,602.346 13.873,593.874C5.482,585.402 0.797,573.946 0.847,562.022L3.038,44.411C3.062,38.503 4.25,32.659 6.535,27.211C8.819,21.763 12.155,16.818 16.352,12.66C20.548,8.502 25.523,5.212 30.992,2.978C36.46,0.743 42.316,-0.391 48.223,-0.361L254.68,0.589C266.604,0.65 278.016,5.44 286.412,13.908C294.806,22.377 299.496,33.831 299.452,45.755L297.262,563.344C297.238,569.254 296.05,575.1 293.766,580.552C291.482,586.002 288.146,590.948 283.95,595.11C279.754,599.272 274.78,602.566 269.31,604.804C263.842,607.044 257.986,608.182 252.076,608.158Z" fill="#455A64"/>
</svg>
