<svg width="10" height="10" viewBox="0 0 10 10" fill="none" xmlns="http://www.w3.org/2000/svg" xmlns:xlink="http://www.w3.org/1999/xlink">
<path d="M8.691,3.841C8.732,4.424 8.652,5.009 8.457,5.56C8.262,6.11 7.956,6.615 7.557,7.042C7.159,7.469 6.677,7.81 6.141,8.043C5.606,8.276 5.028,8.396 4.443,8.396C3.859,8.396 3.281,8.276 2.746,8.043C2.21,7.81 1.728,7.469 1.329,7.042C0.931,6.615 0.625,6.11 0.43,5.56C0.235,5.009 0.155,4.424 0.196,3.841C0.155,3.259 0.235,2.674 0.43,2.123C0.625,1.572 0.931,1.068 1.329,0.641C1.728,0.213 2.21,-0.127 2.746,-0.36C3.281,-0.593 3.859,-0.713 4.443,-0.713C5.028,-0.713 5.606,-0.593 6.141,-0.36C6.677,-0.127 7.159,0.213 7.557,0.641C7.956,1.068 8.262,1.572 8.457,2.123C8.652,2.674 8.732,3.259 8.691,3.841Z" fill="#FFFFFF"/>
</svg>
