<svg width="214" height="38" viewBox="0 0 214 38" fill="none" xmlns="http://www.w3.org/2000/svg" xmlns:xlink="http://www.w3.org/1999/xlink">
<path d="M209.848,36.808C210.266,36.765 210.676,36.668 211.068,36.518C211.64,36.294 212.138,35.914 212.502,35.42C212.868,34.927 213.088,34.34 213.134,33.728C213.134,30.441 213.134,25.645 213.134,19.486C213.134,16.406 213.134,12.954 213.134,9.15C213.134,8.22 213.134,7.249 213.134,6.277C213.27,5.335 213.064,4.375 212.556,3.569C212.272,3.183 211.902,2.868 211.474,2.65C211.048,2.431 210.576,2.314 210.096,2.309L206.872,2.309L177.003,2.309L4.115,1.668C3.672,1.66 3.234,1.76 2.838,1.958C2.442,2.155 2.1,2.446 1.841,2.805C1.342,3.613 1.151,4.575 1.303,5.512C1.303,7.58 1.303,9.647 1.303,11.714C1.303,15.848 1.303,19.982 1.303,24.116C1.303,26.183 1.303,28.25 1.303,30.317C1.218,31.28 1.218,32.248 1.303,33.211C1.412,33.624 1.614,34.006 1.893,34.328C2.173,34.651 2.523,34.905 2.916,35.071C3.323,35.233 3.759,35.311 4.197,35.299L14.719,35.299L60.628,35.547L138.349,36.022L190.749,36.435L204.99,36.601L208.69,36.601C209.538,36.601 209.952,36.601 209.952,36.601L208.69,36.601L204.99,36.601L190.749,36.601L138.349,36.601L60.628,36.353L14.719,36.167L4.197,36.167C3.618,36.19 3.041,36.092 2.502,35.877C1.958,35.645 1.474,35.292 1.087,34.844C0.7,34.396 0.421,33.866 0.27,33.294C0.15,32.751 0.108,32.194 0.146,31.64L0.146,30.11C0.146,28.043 0.146,25.976 0.146,23.909C0.146,19.775 0.146,15.641 0.146,11.507C0.146,9.44 0.146,7.373 0.146,5.306C0.106,4.755 0.106,4.203 0.146,3.652C0.223,3.044 0.458,2.467 0.828,1.978C1.184,1.479 1.656,1.073 2.204,0.796C2.751,0.519 3.357,0.378 3.97,0.386L176.858,1.337L206.726,1.544L209.952,1.544C210.52,1.544 211.08,1.682 211.582,1.944C212.086,2.207 212.52,2.587 212.846,3.053C213.428,3.951 213.664,5.032 213.506,6.091C213.506,7.063 213.506,8.034 213.506,8.964C213.506,12.726 213.506,16.178 213.506,19.3C213.506,25.501 213.362,30.255 213.32,33.562C213.27,34.198 213.04,34.806 212.654,35.315C212.27,35.824 211.748,36.213 211.15,36.435C210.76,36.678 210.308,36.807 209.848,36.808Z" fill="#E0E0E0"/>
</svg>
