<svg width="8" height="10" viewBox="0 0 8 10" fill="none" xmlns="http://www.w3.org/2000/svg" xmlns:xlink="http://www.w3.org/1999/xlink">
<path d="M7.735,4.193C7.679,5.021 7.382,5.815 6.88,6.476C6.378,7.138 5.694,7.638 4.911,7.916C4.129,8.194 3.282,8.237 2.476,8.04C1.669,7.842 0.938,7.414 0.372,6.806C-0.194,6.199 -0.57,5.439 -0.71,4.621C-0.85,3.802 -0.748,2.961 -0.415,2.2C-0.083,1.439 0.464,0.791 1.16,0.338C1.855,-0.116 2.668,-0.357 3.498,-0.355C4.662,-0.312 5.762,0.191 6.556,1.043C7.35,1.896 7.774,3.028 7.735,4.193Z" fill="#FFFFFF"/>
</svg>
