<svg width="10" height="8" viewBox="0 0 10 8" fill="none" xmlns="http://www.w3.org/2000/svg" xmlns:xlink="http://www.w3.org/1999/xlink">
<path d="M9.046,3.965C8.985,4.797 8.681,5.592 8.173,6.252C7.664,6.913 6.972,7.409 6.184,7.68C5.395,7.951 4.545,7.985 3.737,7.777C2.93,7.569 2.202,7.129 1.642,6.511C1.083,5.893 0.717,5.124 0.591,4.3C0.464,3.476 0.582,2.633 0.93,1.875C1.279,1.118 1.841,0.479 2.549,0.039C3.257,-0.402 4.079,-0.625 4.912,-0.603C6.062,-0.534 7.138,-0.016 7.911,0.838C8.684,1.692 9.091,2.814 9.046,3.965Z" fill="#FFFFFF"/>
</svg>
