<svg width="34" height="38" viewBox="0 0 34 38" fill="none" xmlns="http://www.w3.org/2000/svg" xmlns:xlink="http://www.w3.org/1999/xlink">
<path d="M32.061,0.533C32.468,0.981 32.606,1.647 32.416,2.245L21.916,35.245C21.713,35.884 21.176,36.321 20.561,36.349C19.947,36.376 19.379,35.988 19.129,35.37L13.364,21.1L0.391,14.758C-0.171,14.483 -0.524,13.859 -0.499,13.183C-0.474,12.507 -0.076,11.916 0.504,11.693L30.504,0.143C31.048,-0.067 31.653,0.085 32.061,0.533ZM16.289,20.215L20.334,30.227L27.413,7.979L16.289,20.215ZM25.291,5.646L5.067,13.432L14.168,17.882L25.291,5.646Z" clip-rule="evenodd" fill-rule="evenodd" fill="#FFFFFF"/>
</svg>
