<svg width="10" height="10" viewBox="0 0 10 10" fill="none" xmlns="http://www.w3.org/2000/svg" xmlns:xlink="http://www.w3.org/1999/xlink">
<path d="M8.568,4.131C8.609,4.713 8.529,5.298 8.334,5.849C8.139,6.399 7.833,6.904 7.434,7.331C7.036,7.758 6.554,8.099 6.018,8.332C5.482,8.565 4.905,8.685 4.32,8.685C3.736,8.685 3.158,8.565 2.623,8.332C2.087,8.099 1.605,7.758 1.206,7.331C0.808,6.904 0.502,6.399 0.307,5.849C0.112,5.298 0.032,4.713 0.073,4.131C0.032,3.548 0.112,2.963 0.307,2.412C0.502,1.862 0.808,1.357 1.206,0.93C1.605,0.503 2.087,0.162 2.623,-0.071C3.158,-0.304 3.736,-0.424 4.32,-0.424C4.905,-0.424 5.482,-0.304 6.018,-0.071C6.554,0.162 7.036,0.503 7.434,0.93C7.833,1.357 8.139,1.862 8.334,2.412C8.529,2.963 8.609,3.548 8.568,4.131Z" fill="#FFFFFF"/>
</svg>
