<svg width="10" height="10" viewBox="0 0 10 10" fill="none" xmlns="http://www.w3.org/2000/svg" xmlns:xlink="http://www.w3.org/1999/xlink">
<path d="M8.903,4.255C8.846,5.087 8.545,5.885 8.038,6.548C7.532,7.211 6.842,7.711 6.053,7.985C5.265,8.26 4.413,8.296 3.605,8.09C2.796,7.885 2.065,7.446 1.504,6.828C0.942,6.21 0.575,5.441 0.447,4.617C0.319,3.792 0.436,2.948 0.784,2.189C1.132,1.43 1.695,0.791 2.403,0.349C3.112,-0.092 3.934,-0.315 4.768,-0.293C5.914,-0.224 6.988,0.291 7.76,1.14C8.532,1.99 8.942,3.107 8.903,4.255Z" fill="#FFFFFF"/>
</svg>
