<svg width="8" height="8" viewBox="0 0 8 8" fill="none" xmlns="http://www.w3.org/2000/svg" xmlns:xlink="http://www.w3.org/1999/xlink">
<path d="M7.879,3.903C7.818,4.735 7.514,5.53 7.006,6.19C6.497,6.851 5.805,7.347 5.017,7.618C4.229,7.889 3.378,7.923 2.571,7.715C1.763,7.507 1.035,7.067 0.475,6.449C-0.084,5.831 -0.45,5.062 -0.576,4.238C-0.703,3.414 -0.585,2.571 -0.237,1.813C0.112,1.056 0.674,0.417 1.382,-0.023C2.09,-0.464 2.912,-0.687 3.745,-0.665C4.895,-0.596 5.971,-0.078 6.744,0.776C7.517,1.629 7.924,2.752 7.879,3.903Z" fill="#FFFFFF"/>
</svg>
