<svg width="10" height="8" viewBox="0 0 10 8" fill="none" xmlns="http://www.w3.org/2000/svg" xmlns:xlink="http://www.w3.org/1999/xlink">
<path d="M8.213,4.007C8.156,4.839 7.856,5.637 7.349,6.3C6.843,6.963 6.152,7.463 5.364,7.737C4.576,8.012 3.724,8.048 2.915,7.842C2.106,7.637 1.376,7.198 0.814,6.58C0.253,5.962 -0.115,5.193 -0.243,4.369C-0.371,3.544 -0.253,2.7 0.094,1.941C0.442,1.182 1.005,0.543 1.714,0.101C2.422,-0.34 3.245,-0.563 4.079,-0.541C5.225,-0.472 6.299,0.043 7.071,0.892C7.843,1.742 8.253,2.859 8.213,4.007Z" fill="#FFFFFF"/>
</svg>
