<svg width="10" height="10" viewBox="0 0 10 10" fill="none" xmlns="http://www.w3.org/2000/svg" xmlns:xlink="http://www.w3.org/1999/xlink">
<path d="M9.401,4.069C9.345,4.897 9.047,5.691 8.546,6.352C8.044,7.014 7.36,7.514 6.577,7.792C5.795,8.07 4.948,8.113 4.142,7.915C3.335,7.718 2.604,7.289 2.038,6.682C1.472,6.075 1.095,5.315 0.956,4.496C0.816,3.678 0.918,2.837 1.25,2.076C1.583,1.315 2.13,0.667 2.825,0.213C3.521,-0.24 4.333,-0.481 5.164,-0.479C6.328,-0.436 7.428,0.067 8.222,0.919C9.016,1.772 9.44,2.904 9.401,4.069Z" fill="#FFFFFF"/>
</svg>
