<svg width="272" height="570" viewBox="0 0 272 570" fill="none" xmlns="http://www.w3.org/2000/svg" xmlns:xlink="http://www.w3.org/1999/xlink">
<path d="M240.37,0.387L200.352,0.387C199.047,0.411 197.758,0.692 196.561,1.214C195.364,1.736 194.282,2.489 193.376,3.43C192.47,4.37 191.758,5.48 191.281,6.696C190.804,7.912 190.571,9.21 190.596,10.515L190.596,17.771C190.621,19.075 190.388,20.372 189.91,21.587C189.433,22.801 188.721,23.91 187.815,24.849C186.908,25.788 185.826,26.539 184.629,27.058C183.432,27.578 182.144,27.857 180.839,27.879L102.829,27.527C100.19,27.457 97.687,26.342 95.869,24.427C94.051,22.513 93.068,19.955 93.134,17.316L93.134,10.061C93.201,7.425 92.22,4.87 90.407,2.956C88.594,1.042 86.096,-0.075 83.46,-0.151L69.384,-0.151L34.347,-0.316C26.014,-0.366 18,2.889 12.061,8.735C6.122,14.581 2.741,22.542 2.659,30.876L0.592,536.105C0.573,540.239 1.369,544.337 2.933,548.163C4.498,551.989 6.801,555.471 9.711,558.407C12.62,561.345 16.08,563.679 19.893,565.279C23.705,566.879 27.795,567.711 31.929,567.731L237.972,568.681C242.11,568.701 246.21,567.905 250.04,566.339C253.868,564.773 257.352,562.469 260.29,559.557C263.23,556.645 265.566,553.183 267.166,549.369C268.766,545.553 269.6,541.461 269.62,537.325L271.686,32.095C271.736,23.739 268.464,15.704 262.592,9.758C256.72,3.812 248.728,0.441 240.37,0.387Z" fill="#FFFFFF"/>
</svg>
