<svg width="8" height="8" viewBox="0 0 8 8" fill="none" xmlns="http://www.w3.org/2000/svg" xmlns:xlink="http://www.w3.org/1999/xlink">
<path d="M7.524,3.779C7.463,4.611 7.159,5.406 6.651,6.066C6.142,6.727 5.45,7.223 4.662,7.494C3.874,7.765 3.023,7.799 2.216,7.591C1.408,7.383 0.68,6.943 0.12,6.325C-0.439,5.707 -0.805,4.938 -0.931,4.114C-1.058,3.29 -0.94,2.447 -0.592,1.689C-0.243,0.932 0.32,0.293 1.027,-0.147C1.735,-0.588 2.557,-0.811 3.39,-0.789C4.542,-0.725 5.621,-0.209 6.395,0.646C7.169,1.501 7.575,2.627 7.524,3.779Z" fill="#FFFFFF"/>
</svg>
